<?xml version="1.0" encoding="UTF-8"?>
<svg xmlns="http://www.w3.org/2000/svg" xmlns:xlink="http://www.w3.org/1999/xlink" width="375pt" height="374.999991pt" viewBox="0 0 375 374.999991" version="1.2">
<defs>
<clipPath id="clip1">
  <path d="M 310 144 L 368.65625 144 L 368.65625 372 L 310 372 Z M 310 144 "/>
</clipPath>
</defs>
<g id="surface1">
<path style=" stroke:none;fill-rule:nonzero;fill:rgb(71.759033%,89.408875%,91.369629%);fill-opacity:1;" d="M 222.273438 192.5 C 212.191406 192.5 204.015625 184.328125 204.015625 174.25 C 204.015625 164.167969 212.191406 155.996094 222.273438 155.996094 C 232.359375 155.996094 240.53125 164.167969 240.53125 174.25 C 240.53125 184.328125 232.359375 192.5 222.273438 192.5 Z M 222.273438 131.355469 C 198.578125 131.355469 179.367188 150.558594 179.367188 174.25 C 179.367188 197.933594 198.578125 217.136719 222.273438 217.136719 C 245.96875 217.136719 265.179688 197.933594 265.179688 174.25 C 265.179688 150.558594 245.96875 131.355469 222.273438 131.355469 "/>
<path style=" stroke:none;fill-rule:nonzero;fill:rgb(71.759033%,89.408875%,91.369629%);fill-opacity:1;" d="M 232.691406 134.050781 L 211.859375 134.050781 L 211.859375 117.65625 L 232.691406 117.65625 L 232.691406 134.050781 "/>
<path style=" stroke:none;fill-rule:nonzero;fill:rgb(71.759033%,89.408875%,91.369629%);fill-opacity:1;" d="M 201.207031 138.460938 L 186.476562 153.1875 L 174.878906 141.59375 L 189.613281 126.867188 L 201.207031 138.460938 "/>
<path style=" stroke:none;fill-rule:nonzero;fill:rgb(71.759033%,89.408875%,91.369629%);fill-opacity:1;" d="M 182.066406 163.835938 L 182.066406 184.660156 L 165.664062 184.660156 L 165.664062 163.835938 L 182.066406 163.835938 "/>
<path style=" stroke:none;fill-rule:nonzero;fill:rgb(71.759033%,89.408875%,91.369629%);fill-opacity:1;" d="M 186.476562 195.308594 L 201.207031 210.03125 L 189.609375 221.625 L 174.878906 206.898438 L 186.476562 195.308594 "/>
<path style=" stroke:none;fill-rule:nonzero;fill:rgb(71.759033%,89.408875%,91.369629%);fill-opacity:1;" d="M 211.859375 214.441406 L 232.691406 214.441406 L 232.691406 230.835938 L 211.859375 230.835938 L 211.859375 214.441406 "/>
<path style=" stroke:none;fill-rule:nonzero;fill:rgb(71.759033%,89.408875%,91.369629%);fill-opacity:1;" d="M 243.34375 210.03125 L 258.074219 195.308594 L 269.671875 206.898438 L 254.941406 221.625 L 243.34375 210.03125 "/>
<path style=" stroke:none;fill-rule:nonzero;fill:rgb(71.759033%,89.408875%,91.369629%);fill-opacity:1;" d="M 262.484375 184.660156 L 262.484375 163.835938 L 278.886719 163.835938 L 278.886719 184.660156 L 262.484375 184.660156 "/>
<path style=" stroke:none;fill-rule:nonzero;fill:rgb(71.759033%,89.408875%,91.369629%);fill-opacity:1;" d="M 258.074219 153.1875 L 243.34375 138.460938 L 254.941406 126.867188 L 269.671875 141.59375 L 258.074219 153.1875 "/>
<path style=" stroke:none;fill-rule:nonzero;fill:rgb(97.648621%,69.018555%,54.508972%);fill-opacity:1;" d="M 99.386719 228.085938 C 99.496094 228.011719 99.988281 226.84375 101.152344 226.429688 C 102.320312 226.015625 105.144531 227.21875 106.910156 227.03125 C 108.679688 226.84375 110.601562 225.902344 110.449219 226.878906 C 110.296875 227.859375 107.703125 229.683594 105.667969 229.898438 C 103.636719 230.117188 101.191406 229.742188 101.191406 229.742188 L 99.386719 228.085938 "/>
<path style=" stroke:none;fill-rule:nonzero;fill:rgb(17.248535%,16.468811%,22.749329%);fill-opacity:1;" d="M 52.207031 369.042969 C 52.207031 369.042969 51.828125 373.449219 52.5 374.046875 C 53.171875 374.644531 64.121094 374.324219 65.445312 374 C 66.769531 373.675781 66.597656 371.917969 65.296875 371.460938 C 63.996094 371.007812 58.085938 370.964844 57.707031 369.289062 C 57.324219 367.613281 52.207031 369.042969 52.207031 369.042969 "/>
<path style=" stroke:none;fill-rule:nonzero;fill:rgb(17.248535%,16.468811%,22.749329%);fill-opacity:1;" d="M 8.085938 369.375 C 8.085938 369.375 7.585938 373.769531 8.238281 374.386719 C 8.894531 375 19.847656 374.988281 21.179688 374.699219 C 22.515625 374.414062 22.390625 372.648438 21.105469 372.160156 C 19.816406 371.667969 13.910156 371.460938 13.578125 369.773438 C 13.242188 368.085938 8.085938 369.375 8.085938 369.375 "/>
<path style=" stroke:none;fill-rule:nonzero;fill:rgb(26.669312%,24.708557%,33.329773%);fill-opacity:1;" d="M 21.488281 272.851562 C 21.488281 272.851562 6.464844 367.886719 7.878906 369.722656 C 9.292969 371.558594 15.015625 370.203125 15.015625 370.203125 L 36.691406 294.71875 L 37.796875 291.265625 C 37.796875 291.265625 42.914062 294.125 43.101562 294.597656 C 43.289062 295.066406 54.25 328.699219 54.25 328.699219 C 54.25 328.699219 51.039062 368.3125 51.671875 369.722656 C 52.308594 371.136719 57.960938 370.21875 58.738281 369.582031 C 59.511719 368.945312 67.140625 336.820312 66.292969 326.722656 C 65.445312 316.625 57.253906 277.792969 57.253906 277.792969 L 24.761719 271.789062 L 21.488281 272.851562 "/>
<path style=" stroke:none;fill-rule:nonzero;fill:rgb(97.648621%,69.018555%,54.508972%);fill-opacity:1;" d="M 50.429688 196.253906 C 50.429688 196.253906 50.355469 205.394531 47.90625 207.824219 C 50.636719 212.019531 59.773438 209.753906 59.773438 209.753906 C 59.773438 209.753906 58.546875 202.878906 59.300781 197.511719 C 60.054688 192.144531 50.429688 196.253906 50.429688 196.253906 "/>
<path style=" stroke:none;fill-rule:nonzero;fill:rgb(88.62915%,83.918762%,85.099792%);fill-opacity:1;" d="M 68.882812 208.804688 C 79.152344 219.476562 84.96875 240.589844 86.734375 240.375 C 88.5 240.160156 98.152344 227.871094 98.574219 227.097656 C 99 226.316406 102.246094 229.992188 102.320312 230.625 C 102.390625 231.261719 91.761719 250.683594 85.726562 251.101562 C 81.355469 251.40625 78.585938 246.582031 78.585938 246.582031 L 66.859375 225.894531 C 66.859375 225.894531 66.078125 205.886719 68.882812 208.804688 "/>
<path style=" stroke:none;fill-rule:nonzero;fill:rgb(88.62915%,83.918762%,85.099792%);fill-opacity:1;" d="M 21.488281 272.851562 C 21.488281 272.851562 61.089844 288.808594 61.042969 275.710938 C 60.996094 262.609375 71.238281 213.164062 69.828125 209.996094 C 68.414062 206.832031 59.207031 205.050781 59.207031 205.050781 C 59.207031 205.050781 60.21875 209.839844 54.640625 209.375 C 49.042969 208.90625 49.472656 204.476562 49.472656 204.476562 C 49.472656 204.476562 38.207031 200.144531 32.507812 222.234375 C 26.808594 244.324219 21.488281 272.851562 21.488281 272.851562 "/>
<path style=" stroke:none;fill-rule:nonzero;fill:rgb(81.959534%,76.078796%,78.039551%);fill-opacity:1;" d="M 47.085938 214.054688 C 47.085938 214.054688 65.53125 239.136719 65.742188 240.375 C 65.386719 241.945312 65.074219 244.117188 64.75 246.421875 C 62.628906 246.246094 45.738281 222.472656 45.738281 222.472656 L 47.085938 214.054688 "/>
<path style=" stroke:none;fill-rule:nonzero;fill:rgb(97.648621%,69.018555%,54.508972%);fill-opacity:1;" d="M 61.308594 181.105469 C 64.542969 189.105469 63.566406 198.496094 58.507812 200.539062 C 53.445312 202.582031 46.21875 196.503906 42.988281 188.503906 C 39.753906 180.503906 41.738281 173.605469 46.796875 171.5625 C 51.855469 169.519531 58.074219 173.101562 61.308594 181.105469 "/>
<path style=" stroke:none;fill-rule:nonzero;fill:rgb(96.469116%,51.368713%,18.818665%);fill-opacity:1;" d="M 45.835938 179.300781 C 45.835938 179.300781 44.984375 180.457031 45.292969 183.621094 C 45.601562 186.789062 52.089844 189.824219 49.828125 193.664062 C 48.660156 195.644531 45.910156 196.757812 43.941406 193.667969 C 41.972656 190.578125 38.402344 189.203125 37.207031 186.308594 C 36.007812 183.417969 35.371094 179.945312 37.359375 176.804688 C 39.34375 173.664062 39.871094 169.472656 44.898438 167.894531 C 49.925781 166.316406 52.292969 169.3125 55.027344 169.042969 C 57.761719 168.773438 60.640625 171.265625 61.308594 174.601562 C 61.976562 177.9375 60.136719 178.621094 60.136719 178.621094 C 60.136719 178.621094 57.851562 175.300781 56.261719 175.296875 C 54.671875 175.292969 55.753906 180.371094 45.835938 179.300781 "/>
<path style=" stroke:none;fill-rule:nonzero;fill:rgb(81.959534%,76.078796%,78.039551%);fill-opacity:1;" d="M 32.507812 222.234375 C 32.507812 222.234375 40.699219 246.054688 53.699219 259.234375 C 53.414062 261.585938 52.566406 275.050781 53.699219 275.710938 C 54.828125 276.367188 60.382812 276.464844 61.042969 275.710938 C 61.703125 274.957031 63.210938 257.917969 63.304688 255.65625 C 63.398438 253.398438 38.511719 209.042969 38.511719 209.042969 C 38.402344 208.660156 35.191406 211.394531 32.507812 222.234375 "/>
<path style=" stroke:none;fill-rule:nonzero;fill:rgb(81.959534%,76.078796%,78.039551%);fill-opacity:1;" d="M 68.625 220.667969 L 67.285156 229.070312 L 78.585938 246.582031 Z M 68.625 220.667969 "/>
<path style=" stroke:none;fill-rule:nonzero;fill:rgb(21.958923%,20.388794%,28.239441%);fill-opacity:1;" d="M 36.394531 295.796875 C 35.804688 295.3125 28.292969 287.960938 27.9375 286.832031 C 27.585938 285.699219 33.324219 290.683594 37.652344 290.765625 C 48.796875 290.980469 53.578125 284.570312 54.214844 285.347656 C 54.851562 286.125 46.164062 292.761719 46.164062 292.761719 L 54.25 328.699219 C 54.25 328.699219 42.15625 294.269531 40.660156 293.09375 C 37.683594 290.746094 36.394531 295.796875 36.394531 295.796875 "/>
<path style=" stroke:none;fill-rule:nonzero;fill:rgb(90.979004%,59.609985%,43.139648%);fill-opacity:1;" d="M 50.332031 198.5 C 50.332031 198.5 52.246094 200.21875 54.71875 200.726562 C 57.191406 201.238281 59.074219 200.269531 59.074219 200.269531 L 59.058594 201.898438 C 59.058594 201.898438 56.601562 204.507812 49.757812 203.203125 C 50.039062 201.484375 50.332031 198.5 50.332031 198.5 "/>
<path style=" stroke:none;fill-rule:nonzero;fill:rgb(81.959534%,76.078796%,78.039551%);fill-opacity:1;" d="M 53.171875 267.953125 C 53.171875 267.953125 52.863281 274.300781 52.488281 276.863281 C 52.109375 279.425781 50.628906 280.777344 50.628906 280.777344 C 50.628906 280.777344 53.074219 281.582031 57.023438 280.777344 C 60.976562 279.96875 61.015625 278.265625 61.691406 272.363281 C 60.304688 270.394531 53.171875 267.953125 53.171875 267.953125 "/>
<path style=" stroke:none;fill-rule:nonzero;fill:rgb(98.039246%,72.549438%,57.249451%);fill-opacity:1;" d="M 177.71875 221.054688 C 173.601562 221.054688 172.703125 217.878906 172.703125 217.878906 C 172.703125 217.878906 176.476562 217.878906 180.203125 217.878906 C 183.929688 217.878906 184.769531 219.890625 185.160156 221.054688 C 185.546875 222.214844 182.988281 223.535156 182.988281 223.535156 C 182.988281 223.535156 181.398438 221.054688 177.71875 221.054688 "/>
<path style=" stroke:none;fill-rule:nonzero;fill:rgb(98.039246%,72.549438%,57.249451%);fill-opacity:1;" d="M 266.929688 221.054688 C 271.050781 221.054688 272.644531 217.90625 272.644531 217.90625 C 272.644531 217.90625 268.171875 217.875 264.445312 217.875 C 260.71875 217.875 259.878906 219.890625 259.488281 221.054688 C 259.101562 222.214844 261.660156 223.53125 261.660156 223.53125 C 261.660156 223.53125 263.25 221.054688 266.929688 221.054688 "/>
<path style=" stroke:none;fill-rule:nonzero;fill:rgb(21.958923%,20.388794%,28.239441%);fill-opacity:1;" d="M 186.796875 366.484375 C 186.796875 366.484375 187.769531 368.253906 186.679688 369.011719 C 185.589844 369.765625 178.601562 371.070312 179.441406 373.398438 C 183.976562 373.398438 191.476562 373.398438 193.800781 373.398438 C 194 370 192.988281 366.046875 192.988281 366.046875 L 186.796875 366.484375 "/>
<path style=" stroke:none;fill-rule:nonzero;fill:rgb(21.958923%,20.388794%,28.239441%);fill-opacity:1;" d="M 251.894531 370.589844 C 251.894531 370.589844 253.984375 369.027344 261.523438 370.761719 C 262.816406 371.0625 268.691406 372.886719 269.285156 370.484375 C 265.515625 367.960938 260.882812 364.867188 258.949219 363.570312 C 256.234375 363.570312 253.9375 367.324219 253.9375 367.324219 L 251.894531 370.589844 "/>
<path style=" stroke:none;fill-rule:nonzero;fill:rgb(94.509888%,62.348938%,45.098877%);fill-opacity:1;" d="M 214.15625 260.933594 C 214.15625 260.933594 211.820312 266.242188 210.507812 267.554688 C 216.550781 270.949219 219.496094 271.105469 219.496094 271.105469 C 219.496094 271.105469 219.496094 267.71875 219.496094 264.066406 C 219.496094 260.414062 214.15625 260.933594 214.15625 260.933594 "/>
<path style=" stroke:none;fill-rule:nonzero;fill:rgb(26.669312%,24.708557%,33.329773%);fill-opacity:1;" d="M 231.507812 243.835938 C 231.507812 243.835938 228.175781 235.699219 220.425781 239.027344 C 215.929688 240.890625 216.472656 243.601562 213.449219 245.226562 C 210.425781 246.855469 208.71875 256.773438 213.449219 260.414062 C 218.175781 264.054688 223.136719 264.597656 225.382812 263.667969 C 227.632812 262.738281 232.28125 256.464844 233.675781 251.734375 C 235.074219 247.007812 232.011719 244.339844 231.507812 243.835938 "/>
<path style=" stroke:none;fill-rule:nonzero;fill:rgb(98.039246%,72.549438%,57.249451%);fill-opacity:1;" d="M 213.78125 250.304688 C 210.550781 256.367188 211.113281 262.980469 215.042969 265.070312 C 218.96875 267.160156 224.773438 263.9375 228.003906 257.875 C 231.230469 251.8125 230.667969 245.199219 226.738281 243.109375 C 222.8125 241.019531 217.011719 244.242188 213.78125 250.304688 "/>
<path style=" stroke:none;fill-rule:nonzero;fill:rgb(26.669312%,24.708557%,33.329773%);fill-opacity:1;" d="M 217.09375 243.523438 C 217.09375 243.523438 220.890625 249.179688 226.238281 247.398438 C 226.238281 249.875 226.675781 255.90625 228.003906 257.875 C 231.894531 251.734375 232.476562 243.4375 228.003906 242.472656 C 223.527344 241.507812 220.503906 239.804688 217.09375 243.214844 L 217.09375 243.523438 "/>
<path style=" stroke:none;fill-rule:nonzero;fill:rgb(27.449036%,24.308777%,33.329773%);fill-opacity:1;" d="M 222.75 308.710938 L 211.773438 312.59375 C 211.773438 312.59375 188.519531 312.628906 180.421875 315.355469 C 171.476562 318.367188 174.054688 323.597656 186.464844 367.296875 C 192 367.296875 193.816406 367.324219 193.816406 367.324219 L 189.664062 330.917969 C 189.664062 330.917969 209.71875 330.167969 213.027344 331.976562 C 228.097656 340.21875 226.46875 314.53125 226.46875 314.53125 L 222.75 308.710938 "/>
<path style=" stroke:none;fill-rule:nonzero;fill:rgb(27.449036%,24.308777%,33.329773%);fill-opacity:1;" d="M 216.394531 315.269531 L 214.953125 332.886719 C 214.953125 332.886719 215.152344 363.617188 216.394531 368.265625 C 217.636719 372.914062 223.992188 371.671875 235.617188 371.671875 C 247.242188 371.671875 254.683594 371.671875 254.683594 371.671875 L 254.683594 365.476562 C 254.683594 365.476562 231.742188 361.292969 228.175781 361.292969 C 230.964844 351.683594 237.320312 323.015625 235.460938 317.128906 C 233.597656 311.242188 216.394531 315.269531 216.394531 315.269531 "/>
<path style=" stroke:none;fill-rule:nonzero;fill:rgb(88.62915%,83.918762%,85.099792%);fill-opacity:1;" d="M 205.699219 273.410156 C 205.699219 273.410156 212.753906 268.394531 205.429688 262.699219 C 198.101562 257.003906 187.871094 247.394531 187.871094 247.394531 C 187.871094 247.394531 185.390625 244.257812 183.6875 244.257812 C 181.980469 244.257812 180.277344 250.121094 180.53125 252.511719 C 184.40625 257.835938 191.832031 269.550781 197.019531 274.734375 C 199.542969 277.257812 201.175781 279.4375 201.707031 282.570312 C 204.476562 279.800781 205.699219 273.410156 205.699219 273.410156 "/>
<path style=" stroke:none;fill-rule:nonzero;fill:rgb(88.62915%,83.918762%,85.099792%);fill-opacity:1;" d="M 185.699219 251.066406 C 185.699219 251.066406 187.871094 249.878906 187.871094 247.398438 C 187.871094 244.917969 186.117188 234.675781 185.699219 229.421875 C 185.296875 224.324219 185.199219 222.160156 185.199219 222.160156 L 180.585938 221.984375 C 180.585938 221.984375 179.164062 249.457031 180.53125 252.511719 C 181.019531 253.605469 182.761719 255.777344 183.378906 256.582031 C 184.652344 258.234375 185.699219 251.066406 185.699219 251.066406 "/>
<path style=" stroke:none;fill-rule:nonzero;fill:rgb(88.62915%,83.918762%,85.099792%);fill-opacity:1;" d="M 224.117188 269.570312 C 224.117188 269.570312 223.472656 267.261719 226.523438 266.007812 C 229.570312 264.75 245.410156 255.058594 247.710938 252.761719 C 250.003906 250.46875 252.667969 251.148438 253.753906 251.148438 C 254.839844 251.148438 257.628906 254.25 255.457031 257.875 C 253.289062 261.5 243.9375 271.726562 234.039062 278.851562 C 228.394531 273.210938 224.117188 269.570312 224.117188 269.570312 "/>
<path style=" stroke:none;fill-rule:nonzero;fill:rgb(88.62915%,83.918762%,85.099792%);fill-opacity:1;" d="M 249.566406 256.074219 L 247.707031 252.765625 L 259.292969 221.984375 L 264.035156 221.984375 C 264.035156 221.984375 258.585938 253.769531 255.457031 257.875 C 249.878906 257.875 249.566406 256.074219 249.566406 256.074219 "/>
<path style=" stroke:none;fill-rule:nonzero;fill:rgb(88.62915%,83.918762%,85.099792%);fill-opacity:1;" d="M 211.910156 267.699219 L 209.574219 264.984375 L 205.425781 262.699219 L 201.707031 282.574219 L 206.808594 312.671875 C 206.808594 312.671875 208.601562 319.183594 220.265625 319.183594 C 231.933594 319.183594 235.726562 318.597656 235.726562 318.597656 C 235.726562 318.597656 236.726562 288.617188 234.039062 278.855469 C 228.679688 269.207031 226.519531 266.007812 226.519531 266.007812 L 222.273438 267.773438 C 222.273438 267.773438 220.394531 269.902344 217.089844 269.570312 C 213.789062 269.242188 211.910156 267.699219 211.910156 267.699219 "/>
<path style=" stroke:none;fill-rule:nonzero;fill:rgb(88.62915%,83.918762%,85.099792%);fill-opacity:1;" d="M 209.574219 264.984375 L 210.894531 274.824219 C 210.894531 274.824219 212.210938 272.65625 214.070312 272.65625 C 215.929688 272.65625 217.09375 275.445312 217.480469 276.527344 C 220.425781 271.648438 222.675781 268.382812 222.675781 267.605469 C 220.828125 267.605469 219.496094 267.464844 219.496094 267.464844 C 219.496094 267.464844 218.710938 268.859375 215.921875 268.160156 C 213.140625 267.464844 211.785156 266.273438 211.785156 265.707031 C 210.792969 265.15625 209.574219 264.984375 209.574219 264.984375 "/>
<path style=" stroke:none;fill-rule:nonzero;fill:rgb(94.509888%,30.589294%,27.059937%);fill-opacity:1;" d="M 213.371094 276.527344 L 212.75 278.234375 L 213.058594 307.367188 L 217.167969 315.890625 C 217.167969 315.890625 218.351562 313.519531 220.269531 306.746094 C 218.796875 298.378906 214.300781 278.234375 214.300781 278.234375 L 213.371094 276.527344 "/>
<path style=" stroke:none;fill-rule:nonzero;fill:rgb(94.509888%,30.589294%,27.059937%);fill-opacity:1;" d="M 215 269.570312 C 215 269.570312 210.117188 273.429688 212.75 278.234375 C 214.300781 278.234375 214.300781 278.234375 214.300781 278.234375 C 214.300781 278.234375 215.582031 277.355469 216.121094 273.902344 C 216.121094 271.03125 215 269.570312 215 269.570312 "/>
<path style=" stroke:none;fill-rule:nonzero;fill:rgb(21.958923%,20.388794%,28.239441%);fill-opacity:1;" d="M 210.121094 331.265625 C 210.121094 331.265625 203.082031 328.492188 200.816406 327.621094 C 198.546875 326.75 210.121094 329.996094 210.121094 329.996094 C 210.121094 329.996094 201.515625 321.460938 200.816406 320.761719 C 200.117188 320.066406 212.613281 329.597656 214.34375 330.234375 C 216.074219 330.875 221.804688 326.226562 225.871094 327.96875 C 219.1875 329.074219 214.957031 332.886719 214.957031 332.886719 L 210.121094 331.265625 "/>
<path style=" stroke:none;fill-rule:nonzero;fill:rgb(88.62915%,83.918762%,85.099792%);fill-opacity:1;" d="M 49.199219 204.542969 L 49.757812 202.292969 L 59.363281 202.960938 L 59.773438 205.902344 C 59.773438 205.902344 61.117188 210.105469 55.085938 210.054688 C 49.050781 210.007812 49.199219 204.542969 49.199219 204.542969 "/>
<path style=" stroke:none;fill-rule:nonzero;fill:rgb(94.509888%,30.589294%,27.059937%);fill-opacity:1;" d="M 56.320312 203.210938 C 56.320312 203.210938 57.988281 206.214844 57.988281 206.621094 C 57.988281 207.027344 57.691406 211.367188 57.15625 211.441406 C 56.617188 211.515625 54.910156 206.695312 54.910156 206.398438 C 54.910156 206.101562 56.320312 203.210938 56.320312 203.210938 "/>
<path style=" stroke:none;fill-rule:nonzero;fill:rgb(94.509888%,30.589294%,27.059937%);fill-opacity:1;" d="M 57.589844 210.363281 C 57.589844 210.363281 60.449219 231.441406 60.351562 242.625 C 59.855469 245.898438 58.972656 252.71875 58.972656 252.71875 L 54.910156 260.332031 L 50.628906 249.558594 C 50.628906 249.558594 55.21875 238.382812 56.449219 226.914062 C 57.679688 215.445312 56.449219 208.511719 56.449219 208.511719 L 57.589844 210.363281 "/>
<path style=" stroke:none;fill-rule:nonzero;fill:rgb(94.509888%,30.589294%,27.059937%);fill-opacity:1;" d="M 126.261719 281.449219 C 110.902344 281.449219 98.445312 269 98.445312 253.644531 C 98.445312 238.289062 110.902344 225.839844 126.261719 225.839844 C 141.625 225.839844 154.078125 238.289062 154.078125 253.644531 C 154.078125 269 141.625 281.449219 126.261719 281.449219 Z M 126.261719 216.417969 C 105.695312 216.417969 89.023438 233.085938 89.023438 253.644531 C 89.023438 274.203125 105.695312 290.871094 126.261719 290.871094 C 146.828125 290.871094 163.503906 274.203125 163.503906 253.644531 C 163.503906 233.085938 146.828125 216.417969 126.261719 216.417969 "/>
<path style=" stroke:none;fill-rule:nonzero;fill:rgb(94.509888%,30.589294%,27.059937%);fill-opacity:1;" d="M 133.054688 253.644531 C 133.054688 257.394531 130.015625 260.433594 126.261719 260.433594 C 122.511719 260.433594 119.472656 257.394531 119.472656 253.644531 C 119.472656 249.894531 122.511719 246.855469 126.261719 246.855469 C 130.015625 246.855469 133.054688 249.894531 133.054688 253.644531 "/>
<path style=" stroke:none;fill-rule:nonzero;fill:rgb(94.509888%,30.589294%,27.059937%);fill-opacity:1;" d="M 149.582031 275.386719 L 148.015625 276.953125 L 102.945312 231.898438 L 104.511719 230.335938 L 149.582031 275.386719 "/>
<path style=" stroke:none;fill-rule:nonzero;fill:rgb(94.509888%,30.589294%,27.059937%);fill-opacity:1;" d="M 148.015625 230.335938 L 149.582031 231.898438 L 104.511719 276.953125 L 102.945312 275.386719 L 148.015625 230.335938 "/>
<path style=" stroke:none;fill-rule:nonzero;fill:rgb(94.509888%,30.589294%,27.059937%);fill-opacity:1;" d="M 132.597656 218.804688 L 119.925781 218.804688 L 119.925781 210.175781 L 132.597656 210.175781 L 132.597656 218.804688 "/>
<path style=" stroke:none;fill-rule:nonzero;fill:rgb(94.509888%,30.589294%,27.059937%);fill-opacity:1;" d="M 106.097656 224.53125 L 97.136719 233.488281 L 91.035156 227.386719 L 99.992188 218.429688 L 106.097656 224.53125 "/>
<path style=" stroke:none;fill-rule:nonzero;fill:rgb(94.509888%,30.589294%,27.059937%);fill-opacity:1;" d="M 91.40625 247.3125 L 91.40625 259.976562 L 82.777344 259.976562 L 82.777344 247.3125 L 91.40625 247.3125 "/>
<path style=" stroke:none;fill-rule:nonzero;fill:rgb(94.509888%,30.589294%,27.059937%);fill-opacity:1;" d="M 97.136719 273.804688 L 106.097656 282.757812 L 99.992188 288.859375 L 91.035156 279.90625 L 97.136719 273.804688 "/>
<path style=" stroke:none;fill-rule:nonzero;fill:rgb(94.509888%,30.589294%,27.059937%);fill-opacity:1;" d="M 119.925781 288.488281 L 132.597656 288.488281 L 132.597656 297.113281 L 119.925781 297.113281 L 119.925781 288.488281 "/>
<path style=" stroke:none;fill-rule:nonzero;fill:rgb(94.509888%,30.589294%,27.059937%);fill-opacity:1;" d="M 146.429688 282.757812 L 155.386719 273.804688 L 161.492188 279.90625 L 152.53125 288.859375 L 146.429688 282.757812 "/>
<path style=" stroke:none;fill-rule:nonzero;fill:rgb(94.509888%,30.589294%,27.059937%);fill-opacity:1;" d="M 161.117188 259.976562 L 161.117188 247.3125 L 169.75 247.3125 L 169.75 259.976562 L 161.117188 259.976562 "/>
<path style=" stroke:none;fill-rule:nonzero;fill:rgb(94.509888%,30.589294%,27.059937%);fill-opacity:1;" d="M 155.386719 233.484375 L 146.429688 224.53125 L 152.53125 218.429688 L 161.492188 227.386719 L 155.386719 233.484375 "/>
<path style=" stroke:none;fill-rule:nonzero;fill:rgb(97.648621%,69.018555%,54.508972%);fill-opacity:1;" d="M 86.332031 268.941406 C 86.332031 268.941406 94.242188 265.929688 95.46875 268.046875 C 96.691406 270.167969 96.171875 271.34375 94.289062 272.472656 C 92.40625 273.601562 84.589844 273.320312 84.589844 273.320312 L 86.332031 268.941406 "/>
<path style=" stroke:none;fill-rule:nonzero;fill:rgb(88.62915%,83.918762%,85.099792%);fill-opacity:1;" d="M 39.617188 207.511719 C 39.617188 207.511719 42.726562 202.335938 52.613281 225.496094 C 62.042969 247.570312 80.367188 265.199219 86.304688 267.777344 C 86.855469 268.019531 87.28125 268.484375 87.445312 269.066406 C 88.25 271.886719 86.734375 273.019531 85.296875 273.695312 C 83.695312 274.449219 64.859375 261.363281 51.203125 246.207031 C 37.546875 231.050781 31.613281 213.632812 39.617188 207.511719 "/>
<path style=" stroke:none;fill-rule:nonzero;fill:rgb(26.669312%,24.708557%,33.329773%);fill-opacity:1;" d="M 331.886719 371.9375 L 276.792969 145.046875 L 279.640625 144.355469 L 334.730469 371.246094 L 331.886719 371.9375 "/>
<g clip-path="url(#clip1)" clip-rule="nonzero">
<path style=" stroke:none;fill-rule:nonzero;fill:rgb(26.669312%,24.708557%,33.329773%);fill-opacity:1;" d="M 365.8125 371.9375 L 310.71875 145.046875 L 313.566406 144.355469 L 368.660156 371.246094 L 365.8125 371.9375 "/>
</g>
<path style=" stroke:none;fill-rule:nonzero;fill:rgb(26.669312%,24.708557%,33.329773%);fill-opacity:1;" d="M 330.964844 222.621094 L 296.09375 222.621094 L 296.09375 219.691406 L 330.964844 219.691406 L 330.964844 222.621094 "/>
<path style=" stroke:none;fill-rule:nonzero;fill:rgb(26.669312%,24.708557%,33.329773%);fill-opacity:1;" d="M 320.269531 179.335938 L 285.394531 179.335938 L 285.394531 176.40625 L 320.269531 176.40625 L 320.269531 179.335938 "/>
<path style=" stroke:none;fill-rule:nonzero;fill:rgb(26.669312%,24.708557%,33.329773%);fill-opacity:1;" d="M 340.632812 264.507812 L 305.765625 264.507812 L 305.765625 261.578125 L 340.632812 261.578125 L 340.632812 264.507812 "/>
<path style=" stroke:none;fill-rule:nonzero;fill:rgb(26.669312%,24.708557%,33.329773%);fill-opacity:1;" d="M 350.011719 301.414062 L 315.140625 301.414062 L 315.140625 298.488281 L 350.011719 298.488281 L 350.011719 301.414062 "/>
<path style=" stroke:none;fill-rule:nonzero;fill:rgb(26.669312%,24.708557%,33.329773%);fill-opacity:1;" d="M 359.679688 341.691406 L 324.808594 341.691406 L 324.808594 338.765625 L 359.679688 338.765625 L 359.679688 341.691406 "/>
<path style=" stroke:none;fill-rule:nonzero;fill:rgb(21.958923%,20.388794%,28.239441%);fill-opacity:1;" d="M 328.429688 255.09375 C 328.429688 255.09375 329.582031 256.121094 328.507812 257.074219 C 327.433594 258.027344 320.898438 258.644531 321.722656 261.578125 C 326.179688 261.578125 334.972656 261.578125 334.972656 261.578125 L 334.734375 254.507812 L 328.429688 255.09375 "/>
<path style=" stroke:none;fill-rule:nonzero;fill:rgb(21.958923%,20.388794%,28.239441%);fill-opacity:1;" d="M 303.066406 213.386719 C 303.066406 213.386719 305.613281 215 304.234375 215.953125 C 302.859375 216.902344 297.5 216.757812 298.558594 219.691406 C 300.679688 219.691406 309.707031 219.6875 312.636719 219.6875 C 313.808594 216.074219 307.363281 210.265625 307.363281 210.265625 L 303.066406 213.386719 "/>
<path style=" stroke:none;fill-rule:nonzero;fill:rgb(21.958923%,20.388794%,28.239441%);fill-opacity:1;" d="M 328.089844 161.113281 C 328.089844 161.113281 317.929688 179.023438 320.117188 184.03125 C 322.308594 189.042969 327.605469 253.535156 328.289062 256.414062 C 335.3125 256.414062 335.203125 256.414062 335.203125 256.414062 C 335.203125 256.414062 338.425781 200.167969 338.425781 195.777344 C 338.425781 191.386719 341.355469 174.046875 338.425781 166.898438 C 335.492188 159.75 328.089844 161.113281 328.089844 161.113281 "/>
<path style=" stroke:none;fill-rule:nonzero;fill:rgb(27.449036%,24.308777%,33.329773%);fill-opacity:1;" d="M 315.859375 162.085938 L 309.609375 165.433594 C 309.609375 165.433594 295.640625 167.378906 285.675781 171.476562 C 275.714844 175.566406 263.992188 180.546875 302.964844 214.527344 C 309.414062 210.71875 309.414062 210.71875 309.414062 210.71875 L 292.125 185.417969 C 292.125 185.417969 315.375 184.355469 320.117188 184.03125 C 335.785156 182.964844 334.613281 166.898438 334.613281 166.898438 L 315.859375 162.085938 "/>
<path style=" stroke:none;fill-rule:nonzero;fill:rgb(94.509888%,62.348938%,45.098877%);fill-opacity:1;" d="M 324.207031 101.75 L 318.988281 102.335938 C 318.988281 102.335938 320.136719 108.195312 320.136719 114.054688 C 328.1875 114.054688 328.1875 114.054688 328.1875 114.054688 C 328.1875 114.054688 328.339844 102.683594 327.40625 101.75 C 326.476562 100.820312 324.207031 101.75 324.207031 101.75 "/>
<path style=" stroke:none;fill-rule:nonzero;fill:rgb(98.039246%,72.549438%,57.249451%);fill-opacity:1;" d="M 330.011719 91.214844 C 329.175781 97.257812 328.539062 108.304688 318.671875 106.941406 C 314.34375 106.347656 313.238281 96.289062 314.074219 90.246094 C 314.90625 84.203125 318.027344 79.640625 322.355469 80.238281 C 326.6875 80.832031 330.84375 85.171875 330.011719 91.214844 "/>
<path style=" stroke:none;fill-rule:nonzero;fill:rgb(94.509888%,30.589294%,27.059937%);fill-opacity:1;" d="M 324.554688 76.792969 C 324.554688 76.792969 328.667969 75.195312 333.019531 77.960938 C 337.375 80.730469 335.09375 84.257812 336.988281 86.59375 C 338.886719 88.921875 341.613281 96.003906 337.6875 101.472656 C 333.859375 106.800781 333.109375 110.105469 327.507812 109.332031 C 321.90625 108.5625 320.761719 109.195312 319.644531 103.519531 C 318.523438 97.84375 316.222656 99.164062 317.296875 91.398438 C 318.367188 83.632812 314.726562 85.492188 315.234375 81.820312 C 315.742188 78.140625 319.328125 76.074219 324.554688 76.792969 "/>
<path style=" stroke:none;fill-rule:nonzero;fill:rgb(92.549133%,87.059021%,88.238525%);fill-opacity:1;" d="M 313.90625 112.296875 L 306.875 133.382812 L 309.609375 165.433594 C 309.609375 165.433594 327.191406 173.503906 339.105469 169.1875 C 340.476562 145.929688 342.625 114.054688 333.539062 111.417969 C 323.382812 111.417969 313.90625 112.296875 313.90625 112.296875 "/>
<path style=" stroke:none;fill-rule:nonzero;fill:rgb(98.039246%,72.549438%,57.249451%);fill-opacity:1;" d="M 297.988281 112.296875 L 294.90625 109.074219 C 294.90625 109.074219 297.546875 102.335938 299.304688 98.820312 C 299.304688 102.921875 300.039062 107.820312 300.039062 110.128906 C 300.039062 112.441406 297.988281 112.296875 297.988281 112.296875 "/>
<path style=" stroke:none;fill-rule:nonzero;fill:rgb(85.488892%,79.60968%,81.17981%);fill-opacity:1;" d="M 310 120.304688 L 300.355469 108.101562 L 295.933594 112.296875 C 295.933594 112.296875 298.863281 121.085938 301.792969 124.015625 C 304.722656 126.945312 310 120.304688 310 120.304688 "/>
<path style=" stroke:none;fill-rule:nonzero;fill:rgb(92.549133%,87.059021%,88.238525%);fill-opacity:1;" d="M 318.011719 115.8125 C 317.929688 114.464844 316.640625 112.296875 313.90625 112.296875 C 310.4375 112.296875 290.660156 130.84375 288.121094 133.382812 C 285.578125 135.921875 282.792969 142.085938 284.214844 144.128906 C 286.265625 147.082031 292.515625 148.132812 309.023438 131.628906 C 315.664062 124.992188 318.285156 120.351562 318.011719 115.8125 "/>
<path style=" stroke:none;fill-rule:nonzero;fill:rgb(85.488892%,79.60968%,81.17981%);fill-opacity:1;" d="M 306.902344 133.707031 L 313.457031 128.109375 C 313.457031 128.109375 310.773438 132.847656 310.179688 137.652344 C 309.582031 142.457031 309.117188 159.671875 309.117188 159.671875 C 309.117188 159.671875 307.429688 143.242188 306.902344 133.707031 "/>
<path style=" stroke:none;fill-rule:nonzero;fill:rgb(78.42865%,92.939758%,95.289612%);fill-opacity:1;" d="M 253.6875 102.234375 C 231.652344 102.234375 213.789062 84.378906 213.789062 62.351562 C 213.789062 40.324219 231.652344 22.46875 253.6875 22.46875 C 275.722656 22.46875 293.585938 40.324219 293.585938 62.351562 C 293.585938 84.378906 275.722656 102.234375 253.6875 102.234375 Z M 253.6875 8.957031 C 224.1875 8.957031 200.273438 32.863281 200.273438 62.351562 C 200.273438 91.839844 224.1875 115.746094 253.6875 115.746094 C 283.183594 115.746094 307.101562 91.839844 307.101562 62.351562 C 307.101562 32.863281 283.183594 8.957031 253.6875 8.957031 "/>
<path style=" stroke:none;fill-rule:nonzero;fill:rgb(78.42865%,92.939758%,95.289612%);fill-opacity:1;" d="M 263.429688 62.351562 C 263.429688 67.726562 259.066406 72.089844 253.6875 72.089844 C 248.304688 72.089844 243.945312 67.726562 243.945312 62.351562 C 243.945312 56.972656 248.304688 52.613281 253.6875 52.613281 C 259.066406 52.613281 263.429688 56.972656 263.429688 62.351562 "/>
<path style=" stroke:none;fill-rule:nonzero;fill:rgb(78.42865%,92.939758%,95.289612%);fill-opacity:1;" d="M 287.132812 93.539062 L 284.890625 95.78125 L 220.242188 31.160156 L 222.484375 28.917969 L 287.132812 93.539062 "/>
<path style=" stroke:none;fill-rule:nonzero;fill:rgb(78.42865%,92.939758%,95.289612%);fill-opacity:1;" d="M 284.890625 28.917969 L 287.132812 31.160156 L 222.488281 95.78125 L 220.242188 93.539062 L 284.890625 28.917969 "/>
<path style=" stroke:none;fill-rule:nonzero;fill:rgb(78.42865%,92.939758%,95.289612%);fill-opacity:1;" d="M 262.773438 12.375 L 244.601562 12.375 L 244.601562 0 L 262.773438 0 L 262.773438 12.375 "/>
<path style=" stroke:none;fill-rule:nonzero;fill:rgb(78.42865%,92.939758%,95.289612%);fill-opacity:1;" d="M 224.757812 20.589844 L 211.910156 33.4375 L 203.15625 24.6875 L 216.007812 11.839844 L 224.757812 20.589844 "/>
<path style=" stroke:none;fill-rule:nonzero;fill:rgb(78.42865%,92.939758%,95.289612%);fill-opacity:1;" d="M 203.691406 53.269531 L 203.691406 71.433594 L 191.3125 71.433594 L 191.3125 53.269531 L 203.691406 53.269531 "/>
<path style=" stroke:none;fill-rule:nonzero;fill:rgb(78.42865%,92.939758%,95.289612%);fill-opacity:1;" d="M 211.910156 91.265625 L 224.761719 104.109375 L 216.007812 112.859375 L 203.160156 100.015625 L 211.910156 91.265625 "/>
<path style=" stroke:none;fill-rule:nonzero;fill:rgb(78.42865%,92.939758%,95.289612%);fill-opacity:1;" d="M 244.601562 112.324219 L 262.773438 112.324219 L 262.773438 124.699219 L 244.601562 124.699219 L 244.601562 112.324219 "/>
<path style=" stroke:none;fill-rule:nonzero;fill:rgb(78.42865%,92.939758%,95.289612%);fill-opacity:1;" d="M 282.609375 104.109375 L 295.464844 91.265625 L 304.21875 100.015625 L 291.367188 112.863281 L 282.609375 104.109375 "/>
<path style=" stroke:none;fill-rule:nonzero;fill:rgb(78.42865%,92.939758%,95.289612%);fill-opacity:1;" d="M 303.679688 71.433594 L 303.679688 53.269531 L 316.0625 53.269531 L 316.0625 71.433594 L 303.679688 71.433594 "/>
<path style=" stroke:none;fill-rule:nonzero;fill:rgb(78.42865%,92.939758%,95.289612%);fill-opacity:1;" d="M 295.464844 33.4375 L 282.613281 20.589844 L 291.367188 11.839844 L 304.21875 24.6875 L 295.464844 33.4375 "/>
<path style=" stroke:none;fill-rule:nonzero;fill:rgb(98.039246%,72.549438%,57.249451%);fill-opacity:1;" d="M 279.523438 117.128906 C 279.523438 117.128906 276.179688 111.328125 276.59375 107.0625 C 276.851562 104.386719 277.550781 103.789062 277.550781 103.789062 C 277.550781 103.789062 278.277344 104.753906 279.523438 106 C 280.769531 107.242188 282.015625 109.074219 282.015625 114.054688 C 282.015625 119.035156 279.523438 117.128906 279.523438 117.128906 "/>
<path style=" stroke:none;fill-rule:nonzero;fill:rgb(92.549133%,87.059021%,88.238525%);fill-opacity:1;" d="M 289.289062 137.878906 C 289.289062 137.878906 284.066406 118.667969 282.84375 115.226562 L 277.179688 116.226562 C 277.179688 116.226562 278.933594 150.464844 289.289062 145.183594 C 289.289062 139.636719 289.289062 137.878906 289.289062 137.878906 "/>
<path style=" stroke:none;fill-rule:nonzero;fill:rgb(98.039246%,72.549438%,57.249451%);fill-opacity:1;" d="M 279.285156 105.757812 C 279.285156 105.757812 276.136719 101.414062 275.605469 102.023438 C 275.070312 102.632812 276.558594 104.34375 276.558594 104.34375 C 276.558594 104.34375 274.347656 102.515625 274.160156 103.089844 C 273.96875 103.660156 275.640625 105.558594 275.640625 105.558594 C 275.640625 105.558594 273.96875 104.230469 273.855469 104.875 C 273.738281 105.523438 275.375 107.121094 275.375 107.121094 C 275.375 107.121094 273.777344 106.359375 274.046875 107.121094 C 274.308594 107.882812 277.824219 113.496094 277.824219 113.496094 C 277.824219 113.496094 279.855469 108.800781 279.285156 105.757812 "/>
<path style=" stroke:none;fill-rule:nonzero;fill:rgb(78.42865%,92.939758%,95.289612%);fill-opacity:1;" d="M 146.429688 197.878906 C 143.457031 197.878906 141.042969 195.472656 141.042969 192.5 C 141.042969 189.527344 143.457031 187.117188 146.429688 187.117188 C 149.402344 187.117188 151.8125 189.527344 151.8125 192.5 C 151.8125 195.472656 149.402344 197.878906 146.429688 197.878906 Z M 146.429688 179.851562 C 139.441406 179.851562 133.777344 185.511719 133.777344 192.5 C 133.777344 199.484375 139.441406 205.144531 146.429688 205.144531 C 153.417969 205.144531 159.082031 199.484375 159.082031 192.5 C 159.082031 185.511719 153.417969 179.851562 146.429688 179.851562 "/>
<path style=" stroke:none;fill-rule:nonzero;fill:rgb(78.42865%,92.939758%,95.289612%);fill-opacity:1;" d="M 149.5 180.644531 L 143.359375 180.644531 L 143.359375 175.808594 L 149.5 175.808594 L 149.5 180.644531 "/>
<path style=" stroke:none;fill-rule:nonzero;fill:rgb(78.42865%,92.939758%,95.289612%);fill-opacity:1;" d="M 140.214844 181.945312 L 135.871094 186.289062 L 132.453125 182.867188 L 136.796875 178.527344 L 140.214844 181.945312 "/>
<path style=" stroke:none;fill-rule:nonzero;fill:rgb(78.42865%,92.939758%,95.289612%);fill-opacity:1;" d="M 134.570312 189.429688 L 134.570312 195.570312 L 129.734375 195.570312 L 129.734375 189.429688 L 134.570312 189.429688 "/>
<path style=" stroke:none;fill-rule:nonzero;fill:rgb(78.42865%,92.939758%,95.289612%);fill-opacity:1;" d="M 135.871094 198.710938 L 140.214844 203.050781 L 136.796875 206.46875 L 132.453125 202.125 L 135.871094 198.710938 "/>
<path style=" stroke:none;fill-rule:nonzero;fill:rgb(78.42865%,92.939758%,95.289612%);fill-opacity:1;" d="M 143.359375 204.351562 L 149.5 204.351562 L 149.5 209.1875 L 143.359375 209.1875 L 143.359375 204.351562 "/>
<path style=" stroke:none;fill-rule:nonzero;fill:rgb(78.42865%,92.939758%,95.289612%);fill-opacity:1;" d="M 152.640625 203.050781 L 156.988281 198.710938 L 160.40625 202.125 L 156.0625 206.46875 L 152.640625 203.050781 "/>
<path style=" stroke:none;fill-rule:nonzero;fill:rgb(78.42865%,92.939758%,95.289612%);fill-opacity:1;" d="M 158.285156 195.570312 L 158.285156 189.429688 L 163.125 189.429688 L 163.125 195.570312 L 158.285156 195.570312 "/>
<path style=" stroke:none;fill-rule:nonzero;fill:rgb(78.42865%,92.939758%,95.289612%);fill-opacity:1;" d="M 156.988281 186.289062 L 152.640625 181.945312 L 156.0625 178.527344 L 160.40625 182.867188 L 156.988281 186.289062 "/>
<path style=" stroke:none;fill-rule:nonzero;fill:rgb(78.42865%,92.939758%,95.289612%);fill-opacity:1;" d="M 324.8125 38.816406 C 321.835938 38.816406 319.425781 36.40625 319.425781 33.4375 C 319.425781 30.460938 321.835938 28.054688 324.8125 28.054688 C 327.785156 28.054688 330.195312 30.460938 330.195312 33.4375 C 330.195312 36.40625 327.785156 38.816406 324.8125 38.816406 Z M 324.8125 20.785156 C 317.824219 20.785156 312.160156 26.449219 312.160156 33.4375 C 312.160156 40.417969 317.824219 46.082031 324.8125 46.082031 C 331.796875 46.082031 337.464844 40.417969 337.464844 33.4375 C 337.464844 26.449219 331.796875 20.785156 324.8125 20.785156 "/>
<path style=" stroke:none;fill-rule:nonzero;fill:rgb(78.42865%,92.939758%,95.289612%);fill-opacity:1;" d="M 327.882812 21.582031 L 321.742188 21.582031 L 321.742188 16.746094 L 327.882812 16.746094 L 327.882812 21.582031 "/>
<path style=" stroke:none;fill-rule:nonzero;fill:rgb(78.42865%,92.939758%,95.289612%);fill-opacity:1;" d="M 318.597656 22.882812 L 314.253906 27.226562 L 310.832031 23.804688 L 315.179688 19.464844 L 318.597656 22.882812 "/>
<path style=" stroke:none;fill-rule:nonzero;fill:rgb(78.42865%,92.939758%,95.289612%);fill-opacity:1;" d="M 312.953125 30.367188 L 312.953125 36.507812 L 308.113281 36.507812 L 308.113281 30.367188 L 312.953125 30.367188 "/>
<path style=" stroke:none;fill-rule:nonzero;fill:rgb(78.42865%,92.939758%,95.289612%);fill-opacity:1;" d="M 314.253906 39.644531 L 318.597656 43.988281 L 315.175781 47.40625 L 310.832031 43.0625 L 314.253906 39.644531 "/>
<path style=" stroke:none;fill-rule:nonzero;fill:rgb(78.42865%,92.939758%,95.289612%);fill-opacity:1;" d="M 321.742188 45.289062 L 327.882812 45.289062 L 327.882812 50.121094 L 321.742188 50.121094 L 321.742188 45.289062 "/>
<path style=" stroke:none;fill-rule:nonzero;fill:rgb(78.42865%,92.939758%,95.289612%);fill-opacity:1;" d="M 331.023438 43.988281 L 335.367188 39.648438 L 338.785156 43.066406 L 334.445312 47.40625 L 331.023438 43.988281 "/>
<path style=" stroke:none;fill-rule:nonzero;fill:rgb(78.42865%,92.939758%,95.289612%);fill-opacity:1;" d="M 336.667969 36.507812 L 336.667969 30.367188 L 341.503906 30.367188 L 341.503906 36.507812 L 336.667969 36.507812 "/>
<path style=" stroke:none;fill-rule:nonzero;fill:rgb(78.42865%,92.939758%,95.289612%);fill-opacity:1;" d="M 335.367188 27.226562 L 331.023438 22.882812 L 334.445312 19.464844 L 338.789062 23.804688 L 335.367188 27.226562 "/>
<path style=" stroke:none;fill-rule:nonzero;fill:rgb(61.178589%,83.918762%,94.509888%);fill-opacity:1;" d="M 178.949219 109.253906 C 175.070312 109.253906 171.929688 106.109375 171.929688 102.234375 C 171.929688 98.359375 175.070312 95.214844 178.949219 95.214844 C 182.828125 95.214844 185.96875 98.359375 185.96875 102.234375 C 185.96875 106.109375 182.828125 109.253906 178.949219 109.253906 Z M 178.949219 84.015625 C 168.882812 84.015625 160.722656 92.171875 160.722656 102.234375 C 160.722656 112.296875 168.882812 120.453125 178.949219 120.453125 C 189.015625 120.453125 197.175781 112.296875 197.175781 102.234375 C 197.175781 92.171875 189.015625 84.015625 178.949219 84.015625 "/>
<path style=" stroke:none;fill-rule:nonzero;fill:rgb(61.178589%,83.918762%,94.509888%);fill-opacity:1;" d="M 182.957031 86.773438 L 174.945312 86.773438 L 174.945312 80.472656 L 182.957031 80.472656 L 182.957031 86.773438 "/>
<path style=" stroke:none;fill-rule:nonzero;fill:rgb(61.178589%,83.918762%,94.509888%);fill-opacity:1;" d="M 170.847656 88.472656 L 165.183594 94.136719 L 160.722656 89.679688 L 166.390625 84.015625 L 170.847656 88.472656 "/>
<path style=" stroke:none;fill-rule:nonzero;fill:rgb(61.178589%,83.918762%,94.509888%);fill-opacity:1;" d="M 163.488281 98.226562 L 163.488281 106.234375 L 157.179688 106.234375 L 157.179688 98.226562 L 163.488281 98.226562 "/>
<path style=" stroke:none;fill-rule:nonzero;fill:rgb(61.178589%,83.918762%,94.509888%);fill-opacity:1;" d="M 165.183594 110.328125 L 170.847656 115.992188 L 166.390625 120.453125 L 160.722656 114.785156 L 165.183594 110.328125 "/>
<path style=" stroke:none;fill-rule:nonzero;fill:rgb(61.178589%,83.918762%,94.509888%);fill-opacity:1;" d="M 174.941406 117.691406 L 182.957031 117.691406 L 182.957031 123.996094 L 174.941406 123.996094 L 174.941406 117.691406 "/>
<path style=" stroke:none;fill-rule:nonzero;fill:rgb(61.178589%,83.918762%,94.509888%);fill-opacity:1;" d="M 187.050781 115.992188 L 192.71875 110.328125 L 197.175781 114.785156 L 191.511719 120.453125 L 187.050781 115.992188 "/>
<path style=" stroke:none;fill-rule:nonzero;fill:rgb(61.178589%,83.918762%,94.509888%);fill-opacity:1;" d="M 194.414062 106.234375 L 194.414062 98.226562 L 200.71875 98.226562 L 200.71875 106.234375 L 194.414062 106.234375 "/>
<path style=" stroke:none;fill-rule:nonzero;fill:rgb(61.178589%,83.918762%,94.509888%);fill-opacity:1;" d="M 192.714844 94.136719 L 187.050781 88.472656 L 191.511719 84.015625 L 197.175781 89.679688 L 192.714844 94.136719 "/>
<path style=" stroke:none;fill-rule:nonzero;fill:rgb(61.178589%,83.918762%,94.509888%);fill-opacity:1;" d="M 181.347656 102.234375 C 181.347656 103.558594 180.273438 104.628906 178.949219 104.628906 C 177.625 104.628906 176.550781 103.558594 176.550781 102.234375 C 176.550781 100.910156 177.625 99.835938 178.949219 99.835938 C 180.273438 99.835938 181.347656 100.910156 181.347656 102.234375 "/>
</g>
</svg>
