<?xml version="1.0" standalone="no"?>
<!DOCTYPE svg PUBLIC "-//W3C//DTD SVG 20010904//EN"
 "http://www.w3.org/TR/2001/REC-SVG-20010904/DTD/svg10.dtd">
<svg version="1.0" xmlns="http://www.w3.org/2000/svg"
 width="300.000000pt" height="300.000000pt" viewBox="0 0 300.000000 300.000000"
 preserveAspectRatio="xMidYMid meet">
<metadata>
Created by potrace 1.10, written by Peter Selinger 2001-2011
</metadata>
<g transform="translate(0.000000,300.000000) scale(0.100000,-0.100000)"
fill="#000000" stroke="none">
<path d="M2181 2993 c0 -5 4 -17 9 -28 8 -18 9 -17 9 8 1 15 -3 27 -9 27 -5 0
-10 -3 -9 -7z"/>
<path d="M2479 2965 c-2 -22 -1 -71 2 -110 4 -56 6 -61 8 -25 1 25 4 63 7 85
3 22 1 51 -4 65 -9 23 -10 22 -13 -15z"/>
<path d="M2778 2890 c-2 -50 0 -90 5 -90 4 0 7 41 7 90 0 50 -2 90 -4 90 -3 0
-6 -41 -8 -90z"/>
<path d="M2813 2905 c0 -33 2 -45 4 -27 2 18 2 45 0 60 -2 15 -4 0 -4 -33z"/>
<path d="M460 2935 c-20 -24 -6 -28 15 -5 10 11 13 20 8 20 -6 0 -16 -7 -23
-15z"/>
<path d="M271 2868 c0 -9 -4 -25 -7 -35 -5 -17 -5 -17 6 0 6 10 9 25 7 35 -4
15 -5 15 -6 0z"/>
<path d="M799 2871 c-6 -16 -138 -52 -165 -45 -12 3 -25 1 -28 -5 -5 -7 3 -11
19 -11 16 0 24 -4 19 -11 -3 -6 -17 -9 -30 -6 -16 3 -24 0 -24 -10 0 -8 -17
-35 -39 -59 -44 -50 -81 -153 -81 -225 0 -64 25 -139 65 -198 41 -59 43 -68
13 -73 -13 -2 8 -8 46 -12 61 -8 67 -10 47 -21 -20 -10 -13 -14 69 -34 92 -22
155 -23 225 -2 45 13 85 33 85 43 0 4 7 8 15 8 8 0 15 7 15 15 0 8 5 15 10 15
14 0 110 132 103 143 -2 4 0 13 5 20 19 22 23 90 10 170 -6 44 -14 75 -16 69
-7 -21 -17 -12 -18 16 -1 18 -17 44 -48 76 -25 26 -46 46 -46 43 0 -4 -11 4
-25 17 -28 26 -168 71 -186 60 -7 -4 -18 1 -25 10 -6 9 -14 12 -15 7z m173
-79 c118 -58 182 -160 183 -292 0 -61 -5 -86 -26 -131 -36 -76 -90 -133 -157
-166 -50 -25 -68 -28 -147 -27 -106 0 -158 21 -225 87 -65 66 -93 128 -98 223
-4 73 -1 88 22 140 82 180 275 251 448 166z"/>
<path d="M750 2750 c-10 -6 -2 -7 25 -3 49 7 58 13 19 13 -16 0 -36 -5 -44
-10z"/>
<path d="M870 2750 c59 -12 103 -35 144 -76 l39 -39 -28 37 c-30 42 -118 89
-162 87 -26 -1 -25 -2 7 -9z"/>
<path d="M682 2720 c-22 -14 -41 -18 -55 -14 -19 6 -20 5 -8 -10 12 -14 11
-19 -2 -34 -18 -20 -47 -85 -47 -104 0 -7 9 7 20 31 25 55 35 49 15 -9 -8 -23
-15 -60 -15 -81 0 -39 38 -155 47 -145 3 3 14 -6 25 -19 10 -13 38 -34 62 -46
37 -18 55 -21 117 -16 41 2 85 8 99 12 23 6 23 5 -5 -14 -41 -29 -20 -26 33 4
24 14 50 21 59 18 12 -5 15 -2 10 10 -3 9 5 37 19 62 13 25 24 51 24 58 0 7
-8 -3 -16 -20 -23 -47 -34 -41 -17 10 17 47 13 149 -7 186 -18 35 -23 17 -6
-24 9 -21 16 -55 16 -77 0 -44 -30 -124 -37 -96 -3 11 -10 15 -20 11 -12 -5
-15 -2 -10 10 3 8 -15 -6 -41 -31 -26 -26 -42 -48 -35 -50 17 -5 25 -34 13
-46 -19 -19 -127 -20 -175 -1 -46 17 -100 73 -123 128 -15 36 -15 111 0 154
11 31 28 45 28 24 0 -5 13 -9 29 -9 37 1 70 50 50 75 -33 39 82 66 168 39 67
-21 93 -47 99 -94 3 -20 7 -38 11 -42 3 -3 3 9 0 27 -4 20 -2 33 6 36 17 6
-45 63 -90 83 -44 18 -150 21 -181 5 -31 -16 -51 -13 -28 4 29 22 6 18 -32 -5z
m16 -36 c26 -18 28 -31 5 -56 -23 -25 -47 -23 -63 7 -16 30 -4 48 14 22 14
-19 36 -23 36 -7 0 6 -7 13 -15 16 -15 6 -21 34 -7 34 4 0 18 -7 30 -16z m303
-304 c10 -6 19 -20 19 -30 0 -23 -15 -27 -24 -5 -3 8 -10 15 -16 15 -16 0 -12
-27 6 -34 22 -8 8 -25 -16 -19 -29 8 -38 52 -15 70 22 16 21 16 46 3z"/>
<path d="M794 2633 c-81 -110 -76 -101 -57 -111 60 -31 91 -34 142 -11 28 12
51 23 51 25 0 8 -92 129 -100 132 -4 2 -21 -14 -36 -35z m46 8 c0 -4 11 -25
25 -45 l25 -36 -25 6 c-34 8 -32 -4 3 -18 21 -9 23 -12 9 -15 -9 -3 -15 -9
-12 -14 4 -5 -1 -9 -9 -9 -10 0 -16 9 -16 26 0 15 -4 23 -10 19 -6 -4 -9 -14
-8 -23 2 -11 -5 -18 -21 -20 -13 -2 -21 1 -17 6 3 5 -4 12 -15 15 -18 5 -19 8
-7 27 7 13 18 31 24 41 6 10 14 16 17 12 4 -3 7 0 7 8 0 11 2 11 10 -1 15 -24
12 -29 -25 -52 -45 -26 -39 -34 9 -14 29 12 36 20 36 43 0 16 -5 34 -12 41 -9
9 -9 12 0 12 7 0 12 -4 12 -9z"/>
<path d="M1083 2500 c0 -36 2 -50 4 -32 2 17 2 47 0 65 -2 17 -4 3 -4 -33z"/>
<path d="M563 2500 c0 -25 2 -35 4 -22 2 12 2 32 0 45 -2 12 -4 2 -4 -23z"/>
<path d="M727 2493 c-7 -6 25 -63 36 -63 4 0 7 -6 7 -13 0 -7 8 -22 18 -33 10
-10 21 -27 25 -36 8 -23 23 -23 31 -2 5 14 4 15 -9 4 -12 -10 -15 -10 -15 4 0
9 5 16 10 16 6 0 10 17 10 38 0 34 4 40 34 55 l35 16 -30 -45 c-17 -24 -29
-49 -27 -55 2 -6 21 14 42 46 20 31 35 60 31 63 -3 3 -20 0 -38 -6 -43 -16
-66 -15 -115 2 -22 8 -42 12 -45 9z m97 -71 c-1 -15 -3 -34 -3 -42 -1 -11 -71
83 -71 95 0 2 17 -3 38 -11 32 -13 37 -20 36 -42z"/>
<path d="M570 2436 c0 -12 29 -76 34 -76 3 0 -2 17 -11 38 -16 38 -23 50 -23
38z"/>
<path d="M620 2335 c8 -11 22 -26 30 -33 17 -14 60 -39 45 -26 -5 5 -28 25
-50 44 -21 19 -33 26 -25 15z"/>
<path d="M730 2320 c8 -5 28 -10 44 -10 39 0 30 6 -19 13 -27 4 -35 3 -25 -3z"/>
<path d="M775 2240 c17 -4 39 -8 50 -8 20 -1 20 -1 0 8 -11 5 -33 8 -50 8
l-30 0 30 -8z"/>
<path d="M1222 2850 c0 -19 4 -48 8 -65 7 -27 8 -28 8 -5 1 14 -3 43 -7 65
l-9 40 0 -35z"/>
<path d="M2012 2850 c0 -19 2 -27 5 -17 2 9 2 25 0 35 -3 9 -5 1 -5 -18z"/>
<path d="M1252 2845 c0 -11 4 -33 8 -50 7 -27 8 -27 8 -5 0 14 -4 36 -8 50 -6
20 -8 21 -8 5z"/>
<path d="M2591 2610 c-1 -53 -39 -226 -77 -349 -24 -79 -38 -115 -81 -209 -8
-19 -12 -36 -9 -39 3 -4 6 -1 6 5 0 7 6 12 14 12 31 0 141 345 155 485 4 44 4
93 0 110 -6 27 -7 26 -8 -15z"/>
<path d="M2547 2568 c-10 -40 -20 -80 -21 -88 -27 -115 -62 -239 -84 -295 -14
-38 -27 -73 -27 -77 0 -3 -3 -10 -7 -14 -5 -4 -8 -21 -8 -38 l0 -31 15 30 c40
86 56 131 88 240 19 66 40 147 47 180 12 61 23 165 17 165 -2 0 -11 -33 -20
-72z"/>
<path d="M2936 2566 c-4 -25 -16 -70 -27 -102 -11 -32 -22 -69 -24 -83 -2 -14
-17 -69 -34 -121 -17 -52 -31 -101 -31 -107 0 -7 -18 -59 -41 -115 -23 -57
-43 -109 -46 -115 -3 -7 0 -13 6 -13 14 0 52 74 54 106 1 14 7 28 13 32 12 8
93 257 119 366 17 74 31 196 23 196 -3 0 -9 -20 -12 -44z"/>
<path d="M2977 2593 c-4 -3 -7 -23 -7 -44 0 -79 -98 -418 -160 -555 -31 -68
-37 -94 -21 -94 5 0 27 44 49 98 50 122 65 169 58 181 -3 5 -3 17 1 27 6 16 7
16 13 -1 6 -17 7 -17 12 3 4 12 2 20 -3 16 -13 -7 -12 -4 15 94 28 102 61 271
54 277 -3 3 -8 2 -11 -2z"/>
<path d="M2306 2505 c-4 -27 -12 -58 -18 -68 -5 -10 -8 -23 -6 -29 6 -18 40
99 36 124 -2 15 -7 5 -12 -27z"/>
<path d="M1971 2355 c-33 -103 -111 -277 -139 -308 -14 -16 -13 -19 6 -40 12
-13 22 -32 22 -42 0 -11 -40 -60 -92 -112 l-93 -93 38 -37 37 -37 43 42 43 42
114 0 113 0 153 -157 c100 -103 153 -166 154 -180 0 -15 -47 -67 -157 -172
l-157 -151 -56 1 c-30 0 -84 3 -120 7 -60 7 -69 11 -102 47 l-37 40 -108 -105
c-59 -58 -127 -123 -150 -144 l-42 -39 -24 27 c-13 14 -28 26 -34 26 -5 0 -27
-18 -48 -41 l-40 -41 -115 5 -115 5 -152 158 c-84 87 -153 165 -153 173 0 9
43 58 95 109 l95 94 -25 20 c-33 25 -32 36 8 71 18 16 24 26 14 23 -9 -3 -46
-11 -82 -17 -66 -11 -79 -29 -22 -29 27 -1 35 -7 49 -36 16 -36 16 -37 -10
-63 -15 -14 -26 -29 -25 -32 1 -4 -12 -14 -30 -23 -18 -8 -26 -16 -18 -16 8 0
-1 -10 -20 -23 -19 -12 -34 -29 -34 -37 0 -8 -4 -18 -9 -21 -21 -15 11 -68 87
-145 44 -46 85 -90 89 -99 5 -8 16 -15 23 -15 8 0 15 -4 15 -9 0 -16 77 -90
103 -100 22 -9 166 -16 230 -12 9 1 31 15 49 31 31 30 48 36 61 23 4 -3 20 -8
37 -10 26 -2 44 11 146 110 155 149 149 145 183 113 15 -14 32 -26 39 -26 7 0
12 -4 12 -10 0 -6 46 -10 118 -10 107 0 121 2 149 23 51 37 277 258 327 320
86 105 246 360 234 373 -2 1 -26 -34 -53 -79 -54 -91 -185 -277 -194 -277 -3
0 -17 14 -31 31 -14 17 -83 91 -155 165 -131 136 -180 169 -211 143 -7 -5 -15
-6 -17 -2 -3 5 -39 8 -81 7 -67 -2 -80 -5 -117 -32 -35 -26 -44 -29 -60 -19
-11 7 -19 15 -19 19 0 3 30 32 66 64 69 61 114 117 109 137 -10 41 -19 56 -28
50 -17 -10 2 47 40 122 43 84 115 282 110 304 -2 9 -18 -29 -36 -84z"/>
<path d="M2031 2378 c-1 -9 -7 -23 -14 -30 -13 -13 -117 -251 -117 -265 1 -14
49 84 75 153 14 37 35 82 46 101 11 18 18 39 16 46 -3 7 -6 6 -6 -5z"/>
<path d="M1309 2308 c-18 -11 -52 -37 -74 -58 -84 -79 -120 -110 -129 -110 -4
0 -6 -7 -2 -15 3 -9 -3 -19 -17 -26 -27 -14 -76 -66 -93 -98 -14 -27 -7 -49
30 -89 l21 -24 -24 -19 c-28 -23 -22 -24 26 -4 l35 15 -38 42 c-21 24 -42 45
-47 47 -17 6 326 330 350 331 12 0 24 6 26 13 4 10 6 10 6 0 1 -9 26 -13 90
-13 l88 0 123 -130 c67 -71 126 -130 132 -130 15 0 -3 44 -24 59 -11 7 -44 39
-73 70 -30 31 -72 75 -95 99 -36 39 -48 45 -102 52 -42 6 -66 6 -75 -2 -8 -6
-13 -6 -13 -1 0 19 -87 12 -121 -9z"/>
<path d="M2936 2284 c-4 -14 -5 -28 -3 -31 3 -2 8 8 11 23 4 14 5 28 3 31 -3
2 -8 -8 -11 -23z"/>
<path d="M1510 2240 c0 -5 -7 -10 -15 -10 -8 0 -15 -5 -15 -11 0 -6 -9 -9 -19
-6 -20 5 -61 -28 -43 -34 5 -2 0 -13 -11 -24 -11 -11 -17 -14 -13 -7 4 6 2 12
-4 12 -6 0 -14 -10 -19 -22 -5 -13 -12 -23 -17 -23 -5 0 -8 -3 -7 -7 2 -5 -3
-7 -10 -5 -6 1 -11 -6 -9 -15 2 -11 -5 -18 -20 -20 -13 -2 -24 -9 -24 -15 -3
-26 -5 -28 -15 -13 -9 12 -10 11 -6 -7 3 -13 1 -26 -4 -29 -5 -3 -9 -15 -9
-27 0 -13 -4 -17 -9 -11 -12 11 -141 6 -141 -7 0 -5 26 -9 58 -9 l57 0 121
-126 c76 -80 126 -124 133 -120 7 4 19 2 27 -5 19 -16 30 -4 13 14 -8 8 -68
70 -134 137 l-119 124 137 131 c75 72 137 134 137 138 0 4 -4 7 -10 7 -5 0
-10 -4 -10 -10z"/>
<path d="M1648 2133 c124 -132 162 -170 162 -159 0 12 -251 276 -263 276 -5 0
40 -53 101 -117z"/>
<path d="M519 2197 c5 -5 24 -7 42 -5 33 3 33 4 -8 8 -23 3 -39 2 -34 -3z"/>
<path d="M1503 2083 c-12 -2 -36 -20 -54 -40 -28 -32 -31 -41 -26 -82 11 -101
125 -136 196 -60 31 34 29 107 -4 143 -22 24 -67 48 -83 45 -4 -1 -17 -4 -29
-6z m91 -49 c38 -39 36 -93 -5 -128 -41 -35 -83 -34 -120 3 -38 39 -39 84 -2
123 36 38 90 39 127 2z"/>
<path d="M1507 1993 c-13 -13 -7 -42 12 -52 27 -15 56 9 47 37 -7 21 -44 31
-59 15z"/>
<path d="M1130 1996 c0 -8 48 -12 66 -5 13 5 7 8 -23 8 -24 1 -43 -1 -43 -3z"/>
<path d="M2918 1862 c-67 -139 -140 -267 -213 -377 -52 -76 -62 -102 -30 -75
16 14 91 124 136 203 38 66 179 349 179 359 0 26 -22 -7 -72 -110z"/>
<path d="M1671 1829 c-74 -71 -132 -132 -128 -135 3 -3 66 52 139 124 73 72
131 132 128 135 -3 3 -65 -53 -139 -124z"/>
<path d="M750 1940 l-25 -8 25 0 c14 0 36 4 50 8 l25 8 -25 0 c-14 0 -36 -4
-50 -8z"/>
<path d="M1095 1930 c19 -33 120 -130 136 -130 9 0 19 -10 23 -24 3 -13 24
-40 46 -60 37 -33 45 -36 98 -35 47 1 52 3 27 9 -16 4 -44 8 -61 9 -20 1 -41
12 -64 36 -33 34 -33 35 -16 54 19 21 16 51 -5 51 -7 0 -21 -8 -31 -17 -18
-16 -22 -13 -90 53 -39 38 -67 62 -63 54z"/>
<path d="M2992 1928 c-4 -34 -154 -315 -229 -426 -90 -134 -90 -134 -70 -126
31 11 235 341 277 444 8 19 18 38 23 41 4 3 7 24 4 45 -2 21 -4 32 -5 22z"/>
<path d="M778 1918 c-32 -6 -58 -14 -58 -18 0 -8 98 6 132 19 20 8 20 10 3 9
-11 0 -46 -5 -77 -10z"/>
<path d="M1035 1844 c-52 -25 -50 -32 4 -13 17 6 38 8 47 5 34 -13 -25 -50
-134 -86 -24 -7 -48 -22 -53 -32 -9 -16 -8 -18 8 -9 10 5 38 15 63 22 43 12
170 65 179 75 5 5 -50 64 -58 63 -3 0 -28 -11 -56 -25z"/>
<path d="M1135 1779 c-16 -11 -69 -33 -117 -50 -49 -18 -88 -36 -88 -40 0 -14
20 -11 79 11 86 33 94 22 32 -39 -60 -59 -111 -86 -183 -96 -27 -4 -48 -11
-48 -16 0 -12 13 -11 100 7 74 15 75 16 175 112 55 53 101 100 103 103 1 3 -3
11 -10 16 -9 7 -22 5 -43 -8z"/>
<path d="M5 1770 c8 -13 160 -90 177 -90 7 0 -29 23 -81 50 -100 53 -106 56
-96 40z"/>
<path d="M573 1763 c9 -2 25 -2 35 0 9 3 1 5 -18 5 -19 0 -27 -2 -17 -5z"/>
<path d="M0 1730 c0 -5 4 -10 10 -10 5 0 19 -10 32 -22 13 -13 28 -23 33 -24
6 0 27 -8 48 -17 28 -13 42 -15 55 -7 14 9 12 10 -8 4 -14 -3 -21 -3 -17 2 4
4 -27 25 -70 46 -87 43 -83 42 -83 28z"/>
<path d="M1167 1675 c-32 -30 -55 -55 -52 -55 8 0 69 31 75 39 28 33 39 33 82
-3 44 -38 37 -37 193 -40 65 -2 104 11 148 46 25 20 28 21 44 6 15 -16 10 -22
-64 -95 -94 -92 -107 -123 -73 -177 11 -19 26 -36 32 -38 9 -3 9 -6 1 -11 -6
-4 -52 37 -106 93 -86 90 -118 115 -117 93 1 -5 48 -57 105 -118 100 -106 104
-109 122 -92 11 9 24 17 29 17 5 0 -2 -9 -16 -20 l-25 -19 33 -33 c17 -19 32
-43 32 -54 0 -12 -37 -56 -94 -112 -63 -62 -90 -95 -82 -101 7 -6 55 33 141
115 l130 124 -42 41 c-40 40 -42 41 -64 25 -35 -24 -48 -19 -17 7 l27 22 -45
49 c-24 27 -44 57 -44 66 0 9 42 58 94 109 l95 92 -37 40 -37 39 -46 -46 -47
-46 -118 4 -118 5 -36 41 c-19 23 -38 42 -40 42 -3 -1 -31 -25 -63 -55z m478
-411 c10 -16 13 -30 8 -35 -11 -11 -27 5 -37 39 -10 30 8 28 29 -4z"/>
<path d="M2015 1708 c-11 -6 -23 -16 -26 -21 -4 -5 -14 -7 -22 -4 -12 4 -14 2
-10 -10 5 -12 2 -15 -10 -10 -11 4 -17 1 -17 -9 0 -8 -4 -13 -8 -10 -12 7 -74
-59 -65 -69 5 -4 3 -5 -3 -2 -12 7 -46 -28 -37 -37 4 -3 -1 -6 -10 -6 -9 0
-17 -7 -17 -16 0 -8 -5 -12 -11 -9 -6 4 -9 1 -8 -6 4 -27 -21 -71 -37 -65 -9
3 -22 6 -30 6 -20 0 -17 18 4 23 9 3 -3 5 -28 4 -25 0 -35 -2 -22 -4 38 -7 24
-23 -20 -23 -32 0 -39 -3 -28 -10 8 -5 38 -10 66 -10 l51 0 118 -125 c88 -94
122 -124 135 -120 10 3 21 1 25 -5 3 -5 11 -10 16 -10 17 0 -16 40 -138 163
l-118 119 139 134 c132 128 156 156 111 132z"/>
<path d="M2086 1678 c119 -126 235 -242 232 -232 -5 19 -249 274 -261 274 -6
0 7 -19 29 -42z"/>
<path d="M2580 1633 c-19 -30 -56 -85 -82 -121 -26 -36 -45 -69 -42 -74 3 -5
2 -7 -3 -6 -4 2 -9 0 -10 -5 -2 -4 -18 -21 -35 -38 -18 -17 -27 -28 -20 -24
23 12 12 -10 -32 -64 -25 -30 -44 -59 -43 -65 1 -6 -4 -10 -11 -8 -6 1 -11 -4
-10 -10 2 -7 -3 -12 -10 -10 -6 1 -11 -3 -10 -10 2 -7 -2 -12 -8 -13 -5 0 -35
-22 -65 -49 -31 -29 -42 -42 -24 -31 l30 18 -34 -37 c-19 -20 -31 -36 -27 -36
17 0 233 221 313 320 84 104 152 208 158 242 2 10 3 18 1 18 -1 0 -26 -34 -56
-75 -83 -113 -88 -98 -7 20 39 58 69 106 66 108 -2 3 -20 -20 -39 -50z m-190
-326 c0 -2 -17 -19 -37 -38 l-38 -34 34 38 c33 34 41 42 41 34z m-130 -130 c0
-2 -15 -16 -32 -33 l-33 -29 29 33 c28 30 36 37 36 29z"/>
<path d="M33 1654 c0 -7 5 -10 10 -7 6 3 15 0 21 -8 6 -8 40 -24 76 -36 52
-18 60 -19 41 -5 -46 32 -148 71 -148 56z"/>
<path d="M192 1641 c-10 -6 -5 -11 19 -20 18 -6 35 -9 37 -6 3 3 0 5 -7 5 -7
0 -10 4 -7 9 4 5 -4 7 -16 4 -19 -4 -20 -3 -8 6 18 13 1 15 -18 2z"/>
<path d="M1125 1609 c-45 -18 -155 -111 -155 -131 0 -19 29 -5 65 33 l40 40
127 -2 c70 -2 130 0 133 3 9 8 -49 17 -127 19 -38 1 -68 5 -68 7 0 3 10 16 22
29 26 27 26 27 -37 2z"/>
<path d="M1790 1616 c0 -8 -6 -17 -12 -19 -8 -3 -6 -6 5 -6 11 -1 17 6 17 19
0 11 -2 20 -5 20 -3 0 -5 -6 -5 -14z"/>
<path d="M1964 1516 c-28 -28 -34 -42 -34 -76 0 -34 6 -48 33 -75 19 -19 45
-37 58 -40 57 -14 139 53 139 115 0 28 -26 73 -56 95 -10 8 -39 15 -62 15 -37
0 -50 -6 -78 -34z m133 -4 c32 -24 44 -71 28 -110 -26 -61 -106 -73 -149 -21
-35 41 -34 83 3 120 34 34 83 39 118 11z"/>
<path d="M2017 1463 c-14 -13 -7 -43 12 -53 23 -12 56 14 47 37 -3 8 -6 17 -6
19 0 7 -46 5 -53 -3z"/>
<path d="M1118 1503 c12 -2 30 -2 40 0 9 3 -1 5 -23 4 -22 0 -30 -2 -17 -4z"/>
<path d="M2515 1413 c-38 -53 -133 -160 -209 -237 -77 -78 -139 -147 -138
-153 4 -17 -88 -104 -101 -96 -6 3 -7 1 -3 -5 6 -11 -6 -16 -26 -13 -5 0 -7
-5 -5 -11 1 -7 -2 -13 -8 -12 -5 0 -22 -12 -37 -28 -36 -38 -28 -35 43 13 144
98 368 309 448 423 22 33 41 63 41 68 0 4 20 37 45 72 39 56 46 78 26 75 -3 0
-37 -44 -76 -96z"/>
<path d="M1246 1481 c-16 -11 -35 -17 -44 -14 -11 5 -13 1 -7 -18 7 -21 6 -22
-8 -11 -12 10 -17 10 -23 1 -5 -8 -3 -9 6 -4 8 5 11 3 8 -6 -2 -8 -20 -22 -39
-31 -39 -19 -155 -133 -124 -122 19 7 19 7 3 -13 -10 -11 -18 -30 -18 -44 0
-13 -4 -19 -8 -14 -10 15 -156 20 -147 6 3 -6 32 -11 64 -11 l57 0 118 -125
c65 -69 123 -124 130 -122 6 2 22 0 34 -5 15 -5 22 -4 20 1 -1 6 -58 66 -125
134 -68 69 -123 132 -123 140 0 13 248 257 269 265 4 1 67 -60 139 -137 l132
-139 -137 -131 c-75 -72 -134 -133 -131 -137 4 -3 68 55 144 128 108 106 135
138 128 150 -20 36 -258 278 -273 278 -9 0 -29 -9 -45 -19z"/>
<path d="M2175 1294 c-77 -73 -135 -134 -129 -134 13 0 281 256 274 263 -3 3
-68 -55 -145 -129z"/>
<path d="M1608 1395 c14 -26 120 -130 126 -124 3 3 -26 36 -65 75 -39 38 -67
60 -61 49z"/>
<path d="M1203 1295 c-33 -33 -35 -39 -30 -81 13 -115 148 -149 207 -52 25 41
25 75 1 112 -26 39 -57 55 -104 56 -31 0 -46 -7 -74 -35z m132 -1 c31 -20 49
-73 36 -107 -22 -58 -99 -75 -148 -33 -22 19 -28 32 -28 66 0 34 6 47 28 66
33 28 77 31 112 8z"/>
<path d="M1257 1243 c-13 -13 -7 -42 12 -52 27 -15 56 9 47 37 -7 21 -44 31
-59 15z"/>
<path d="M1761 1296 c-8 -10 -8 -22 3 -47 30 -73 71 -99 148 -98 41 1 48 3 28
9 -14 4 -43 9 -65 10 -32 1 -46 8 -69 36 -27 33 -28 35 -11 54 19 21 14 50 -8
50 -8 0 -20 -6 -26 -14z"/>
<path d="M2484 1263 c-73 -98 -322 -329 -438 -406 -52 -34 -61 -68 -10 -36 19
11 34 16 34 10 0 -6 -4 -11 -8 -11 -5 0 -8 -10 -7 -22 1 -13 -2 -31 -7 -41 -5
-9 -11 -46 -13 -82 -3 -50 -1 -63 9 -59 9 3 15 29 18 72 6 87 35 150 95 210
64 63 128 94 213 100 90 6 157 -11 225 -59 31 -22 61 -36 67 -33 6 4 8 2 4 -4
-3 -6 11 -41 31 -79 36 -65 38 -72 38 -163 0 -84 -3 -101 -28 -148 -37 -70
-97 -128 -166 -161 -47 -22 -70 -26 -141 -26 -99 0 -168 26 -233 88 l-39 36
-71 -42 c-43 -26 -64 -43 -54 -45 9 -2 30 6 45 17 47 33 75 35 108 8 43 -36
134 -79 155 -74 11 3 19 0 19 -5 0 -7 30 -9 84 -6 71 4 95 10 151 38 40 20 84
53 110 82 119 132 114 364 -9 491 -77 80 -159 111 -279 105 -94 -4 -94 2 -3
97 67 69 143 171 134 180 -3 3 -18 -11 -34 -32z"/>
<path d="M145 1186 c38 -18 160 -43 250 -52 70 -7 89 1 25 10 -60 8 -153 25
-200 36 -25 6 -58 13 -75 16 l-30 4 30 -14z"/>
<path d="M859 1165 c42 -57 215 -226 236 -231 12 -3 41 -4 66 -2 l44 3 -60 9
c-60 8 -60 8 -184 130 -68 66 -114 108 -102 91z"/>
<path d="M116 1157 c56 -42 404 -92 466 -67 19 7 14 9 -27 10 -68 1 -255 26
-335 44 -132 31 -128 30 -104 13z"/>
<path d="M584 1023 c-17 -2 -42 -15 -54 -28 -22 -23 -23 -29 -13 -72 6 -26 9
-52 6 -57 -3 -5 -36 -6 -73 -3 -80 7 -86 2 -119 -87 -22 -59 -22 -60 -3 -85
11 -14 36 -31 57 -37 67 -18 73 -80 13 -121 -32 -22 -32 -23 -8 -23 14 1 38
11 54 24 26 22 28 28 23 66 -7 53 -22 69 -78 81 -24 6 -46 14 -49 20 -4 5 4
39 16 76 l22 67 59 -3 c32 -1 65 -4 73 -6 8 -2 24 2 35 10 19 15 19 16 0 71
-15 45 -16 57 -6 64 22 13 128 33 140 26 6 -4 11 -25 11 -47 0 -55 34 -89 89
-89 34 0 44 5 67 35 14 19 33 35 42 35 8 0 29 -17 47 -37 24 -28 36 -35 51
-29 15 7 16 9 4 14 -8 3 -28 20 -44 39 -19 21 -39 33 -55 33 -29 -1 -66 -25
-66 -43 0 -7 -19 -13 -48 -15 -26 -2 -47 1 -46 5 1 4 -1 15 -4 23 -4 8 -12 33
-19 55 -12 38 -15 40 -53 41 -22 1 -54 -1 -71 -3z"/>
<path d="M2324 966 c-157 -38 -263 -201 -234 -358 12 -60 61 -153 81 -153 18
0 15 75 -5 130 -70 185 118 374 310 312 64 -21 126 -25 131 -10 6 18 -75 65
-137 80 -65 15 -79 15 -146 -1z"/>
<path d="M671 938 c-1 -23 20 -68 32 -68 5 0 4 6 -2 14 -7 8 -16 27 -21 43 -4
15 -9 20 -9 11z"/>
<path d="M571 879 c-2 -40 -35 -64 -84 -61 -35 1 -38 0 -19 -8 12 -5 30 -7 40
-4 15 5 14 4 -2 -6 -14 -10 -26 -9 -57 3 -48 19 -52 11 -4 -9 48 -20 55 -18
98 20 32 27 38 38 34 62 -4 28 -4 28 -6 3z"/>
<path d="M842 880 c-12 -10 -28 -20 -35 -23 -6 -2 -9 -7 -5 -11 3 -4 21 6 40
23 36 33 37 42 0 11z"/>
<path d="M2303 859 c-78 -38 -123 -111 -123 -198 0 -73 14 -103 44 -95 49 12
99 -44 76 -85 -8 -16 -3 -20 35 -31 60 -17 129 -6 185 28 80 49 121 168 89
260 -9 27 -14 30 -29 22 -44 -23 -102 31 -82 75 10 21 8 25 -20 34 -50 18
-128 13 -175 -10z m131 -15 c18 -7 21 -40 6 -78 -11 -29 -8 -31 21 -13 18 10
23 9 40 -12 29 -36 20 -53 -46 -86 l-60 -30 40 -3 c48 -4 65 -17 65 -48 0 -33
-19 -39 -107 -36 -77 4 -78 4 -100 39 -31 47 -29 74 6 94 22 13 33 30 45 75
30 105 40 117 90 98z m-108 -45 c-3 -17 -6 -37 -6 -45 0 -7 -18 -34 -40 -59
-25 -29 -40 -56 -40 -73 -1 -26 -1 -27 -16 -7 -19 24 -13 98 10 143 14 27 69
71 90 72 5 0 6 -14 2 -31z m264 -139 c0 -54 -38 -120 -89 -154 -48 -32 -133
-47 -146 -26 -12 19 3 25 66 26 75 1 112 29 103 78 -3 16 -10 36 -16 43 -8 10
-6 19 11 36 11 13 21 30 21 39 0 9 6 18 13 21 19 7 37 -23 37 -63z"/>
<path d="M2397 823 c-3 -5 -15 -41 -26 -80 -18 -61 -27 -76 -52 -89 -34 -17
-34 -40 0 -37 19 3 20 0 11 -17 -17 -32 -4 -40 71 -40 63 0 69 2 69 21 0 19
-5 21 -50 17 -46 -3 -50 -1 -50 19 0 18 14 30 60 53 33 17 60 34 60 40 0 20
-21 20 -60 0 -22 -11 -40 -19 -40 -17 0 2 9 30 20 62 11 31 17 61 14 66 -6 11
-21 12 -27 2z"/>
<path d="M2619 866 c-4 -34 1 -87 12 -111 21 -49 17 -153 -8 -200 -47 -89
-124 -138 -218 -139 -33 0 -75 5 -93 13 -18 8 -52 14 -75 15 -61 1 -54 -22 17
-59 120 -61 267 -41 360 49 67 66 89 116 94 216 3 81 2 88 -30 150 -28 55 -56
86 -59 66z"/>
<path d="M986 843 c2 -12 -11 -28 -39 -48 -32 -24 -43 -38 -45 -63 -2 -22 2
-34 12 -38 15 -6 245 41 255 52 6 7 -3 5 -124 -21 -90 -19 -115 -19 -115 1 0
8 13 29 29 45 16 16 26 29 23 29 -4 0 1 5 11 11 20 12 23 49 3 49 -8 0 -13 -7
-10 -17z"/>
<path d="M2532 848 c-25 -25 -6 -68 30 -68 18 0 38 28 38 52 -1 7 -9 3 -21
-11 -15 -19 -22 -22 -32 -12 -9 9 -7 16 13 31 23 18 24 20 5 20 -12 0 -26 -5
-33 -12z"/>
<path d="M614 811 c-64 -29 -89 -72 -89 -153 0 -52 5 -73 21 -95 88 -119 271
-83 304 60 17 77 -17 147 -90 185 -53 27 -92 28 -146 3z m148 -28 c78 -39 90
-178 21 -233 -47 -37 -96 -45 -148 -26 -105 41 -126 165 -42 245 44 40 107 46
169 14z"/>
<path d="M682 768 c-7 -7 -12 -17 -12 -23 0 -17 -40 -52 -74 -64 -26 -10 -28
-14 -21 -48 9 -51 42 -83 85 -83 36 0 80 23 80 41 0 5 11 20 24 32 50 46 37
108 -30 143 -32 17 -37 17 -52 2z m61 -45 c-3 -8 3 -13 15 -13 17 0 19 -5 13
-32 -4 -20 -15 -37 -29 -43 -12 -5 -22 -18 -22 -27 0 -22 -27 -37 -63 -35 -19
2 -27 7 -27 21 0 13 -5 16 -16 12 -12 -4 -15 -2 -11 9 4 8 2 17 -3 20 -6 4
-10 11 -10 16 0 6 4 7 10 4 9 -6 100 71 98 83 -2 17 4 19 26 9 13 -6 21 -17
19 -24z"/>
<path d="M694 699 c-19 -21 -19 -21 4 -39 42 -35 74 7 34 44 -18 15 -20 15
-38 -5z"/>
<path d="M637 652 c-16 -17 -15 -20 8 -42 41 -39 73 -10 39 38 -18 27 -26 27
-47 4z"/>
<path d="M907 792 c-17 -18 -27 -39 -27 -59 0 -35 26 -103 39 -103 5 0 18 -3
28 -6 15 -5 16 -4 3 6 -12 9 -6 10 30 5 24 -3 47 -11 51 -17 10 -15 -31 -128
-48 -135 -8 -3 -36 4 -61 16 l-45 22 -35 -35 -35 -35 17 -45 c10 -25 16 -51
14 -58 -2 -6 -33 -19 -69 -29 -59 -17 -65 -17 -76 -2 -7 9 -13 33 -13 53 0 45
-23 69 -74 77 -34 5 -41 2 -80 -36 l-42 -42 -53 56 c-29 30 -49 60 -46 65 3 6
-1 10 -9 10 -33 0 -7 -51 57 -112 43 -42 62 -41 112 6 15 14 37 26 49 26 24
-1 56 -22 56 -38 0 -6 6 -13 13 -15 9 -4 9 -6 0 -6 -15 -1 -7 -28 15 -54 17
-20 75 -23 119 -6 37 14 74 49 66 63 -9 13 -14 43 -13 75 0 42 41 53 94 26 35
-19 31 -20 60 10 14 14 33 49 42 78 16 51 16 55 0 80 -12 17 -28 27 -49 29
-27 3 -23 6 28 16 89 20 176 44 171 49 -2 2 -39 -5 -82 -17 -44 -11 -105 -23
-136 -27 -60 -6 -66 -11 -46 -31 9 -9 9 -12 0 -12 -17 0 -42 54 -42 91 0 22 9
42 27 61 15 15 24 28 22 28 -3 0 -17 -13 -32 -28z"/>
<path d="M1240 744 l-35 -14 35 5 c19 3 39 10 44 15 14 14 -2 12 -44 -6z"/>
<path d="M426 686 c18 -8 37 -22 43 -33 6 -10 10 -13 11 -8 0 23 -43 55 -72
55 -7 -1 1 -7 18 -14z"/>
<path d="M482 594 c-2 -30 -9 -49 -29 -69 -22 -22 -23 -25 -7 -17 36 19 45 38
41 84 l-4 43 -1 -41z"/>
<path d="M2035 589 c-19 -21 -19 -22 -1 -16 14 6 17 3 12 -8 -3 -8 -2 -15 3
-15 4 0 13 -19 20 -41 14 -46 18 -40 -56 -85 -24 -14 -43 -30 -43 -35 0 -5 24
4 53 21 28 17 62 36 74 42 l22 11 -24 51 c-13 28 -27 61 -32 74 l-8 24 -20
-23z"/>
<path d="M826 501 c-28 -28 -37 -45 -33 -62 4 -23 4 -23 6 2 2 39 63 91 99 83
21 -4 24 -3 12 5 -26 18 -45 12 -84 -28z"/>
<path d="M2212 528 c-13 -13 -16 -38 -6 -38 4 0 13 8 20 18 10 13 15 15 25 5
10 -10 9 -16 -7 -27 -24 -18 -13 -31 15 -16 35 18 21 70 -19 70 -9 0 -21 -5
-28 -12z"/>
<path d="M536 455 c-11 -8 -15 -15 -10 -15 6 0 14 4 20 9 5 5 27 11 49 14 l40
4 -40 1 c-22 1 -49 -5 -59 -13z"/>
<path d="M679 415 c9 -18 17 -31 19 -30 7 6 -11 54 -22 58 -9 4 -8 -5 3 -28z"/>
<path d="M1 206 c2 -2 27 -6 54 -9 34 -4 42 -3 25 3 -25 8 -87 13 -79 6z"/>
</g>
</svg>
