<?xml version="1.0" encoding="UTF-8"?>
<svg xmlns="http://www.w3.org/2000/svg" xmlns:xlink="http://www.w3.org/1999/xlink" width="375pt" height="374.999991pt" viewBox="0 0 375 374.999991" version="1.2">
<defs>
<clipPath id="clip1">
  <path d="M 31.015625 168 L 179 168 L 179 270 L 31.015625 270 Z M 31.015625 168 "/>
</clipPath>
<clipPath id="clip2">
  <path d="M 31.015625 190 L 179 190 L 179 270 L 31.015625 270 Z M 31.015625 190 "/>
</clipPath>
<clipPath id="clip3">
  <path d="M 196 190 L 343.554688 190 L 343.554688 270 L 196 270 Z M 196 190 "/>
</clipPath>
<clipPath id="clip4">
  <path d="M 196 190 L 343.554688 190 L 343.554688 270 L 196 270 Z M 196 190 "/>
</clipPath>
<clipPath id="clip5">
  <path d="M 53 79.097656 L 332 79.097656 L 332 295.800781 L 53 295.800781 Z M 53 79.097656 "/>
</clipPath>
<clipPath id="clip6">
  <path d="M 31.015625 83 L 343.554688 83 L 343.554688 295.800781 L 31.015625 295.800781 Z M 31.015625 83 "/>
</clipPath>
<clipPath id="clip7">
  <path d="M 31.015625 111 L 343.554688 111 L 343.554688 295.800781 L 31.015625 295.800781 Z M 31.015625 111 "/>
</clipPath>
<clipPath id="clip8">
  <path d="M 44 79.097656 L 330 79.097656 L 330 295.800781 L 44 295.800781 Z M 44 79.097656 "/>
</clipPath>
<clipPath id="clip9">
  <path d="M 41 79.097656 L 271 79.097656 L 271 295.800781 L 41 295.800781 Z M 41 79.097656 "/>
</clipPath>
<clipPath id="clip10">
  <path d="M 61 79.097656 L 331 79.097656 L 331 251 L 61 251 Z M 61 79.097656 "/>
</clipPath>
</defs>
<g id="surface1">
<g clip-path="url(#clip1)" clip-rule="nonzero">
<path style="fill:none;stroke-width:60;stroke-linecap:round;stroke-linejoin:round;stroke:rgb(31.759644%,33.329773%,56.079102%);stroke-opacity:1;stroke-miterlimit:10;" d="M 1985.88493 1840.213196 C 1969.805279 1944.501911 1881.600721 1976.498448 1881.600721 1976.498448 L 1548.698573 2101.684902 L 1548.698573 2285.398355 L 1291.991284 2285.398355 L 1291.991284 2101.684902 L 958.989055 1976.498448 C 958.989055 1976.498448 870.751137 1944.501911 854.704847 1840.213196 L 822.612266 1483.185164 L 2018.010871 1483.185164 Z M 1985.88493 1840.213196 " transform="matrix(0.117093,0,0,-0.1172,-61.654064,440.192851)"/>
</g>
<path style=" stroke:none;fill-rule:nonzero;fill:rgb(100%,100%,100%);fill-opacity:1;" d="M 137.460938 143.371094 C 136.527344 143.21875 135.589844 143.441406 134.722656 143.945312 C 135.671875 130.65625 135.484375 122.21875 135.484375 122.21875 C 128.832031 100.511719 109.300781 98.589844 104.652344 98.4375 C 100.015625 98.589844 80.472656 100.511719 73.835938 122.21875 C 73.835938 122.21875 73.648438 130.667969 74.59375 143.945312 C 73.71875 143.441406 72.78125 143.21875 71.84375 143.371094 C 68.824219 143.863281 66.914062 147.976562 67.605469 152.570312 C 68.285156 157.167969 71.292969 160.496094 74.3125 160.003906 C 74.933594 159.910156 75.507812 159.640625 76.023438 159.265625 C 76.363281 162.21875 76.75 165.277344 77.207031 168.441406 C 77.605469 171.148438 79.605469 173.503906 81.632812 175.238281 C 87.910156 180.628906 96.550781 187.027344 104.652344 187.613281 C 112.753906 187.027344 121.386719 180.628906 127.671875 175.238281 C 129.710938 173.503906 131.714844 171.148438 132.097656 168.441406 C 132.554688 165.277344 132.953125 162.21875 133.28125 159.265625 C 133.808594 159.640625 134.371094 159.910156 134.992188 160.003906 C 138.011719 160.496094 141.023438 157.167969 141.710938 152.570312 C 142.390625 147.976562 140.496094 143.863281 137.460938 143.371094 "/>
<path style="fill:none;stroke-width:60;stroke-linecap:round;stroke-linejoin:round;stroke:rgb(31.759644%,33.329773%,56.079102%);stroke-opacity:1;stroke-miterlimit:10;" d="M 1700.487808 2532.604938 C 1692.514703 2533.904797 1684.508238 2532.005002 1677.102258 2527.705468 C 1685.208804 2641.093198 1683.607511 2713.085407 1683.607511 2713.085407 C 1626.794968 2898.298698 1459.993611 2914.696924 1420.294888 2915.996783 C 1380.696246 2914.696924 1213.794808 2898.298698 1157.115707 2713.085407 C 1157.115707 2713.085407 1155.514414 2640.993209 1163.5876 2527.705468 C 1156.114899 2532.005002 1148.108434 2533.904797 1140.101969 2532.604938 C 1114.314479 2528.405392 1098.001306 2493.30919 1103.906074 2454.113431 C 1109.710762 2414.884343 1135.398171 2386.487416 1161.18566 2390.686961 C 1166.489943 2391.486875 1171.393903 2393.786626 1175.797459 2396.98628 C 1178.699803 2371.789006 1182.00247 2345.69183 1185.905621 2318.694752 C 1189.308369 2295.597251 1206.388828 2275.499426 1223.702809 2260.701027 C 1277.312765 2214.706005 1351.105685 2160.111912 1420.294888 2155.112453 C 1489.484091 2160.111912 1563.210291 2214.706005 1616.886968 2260.701027 C 1634.301029 2275.499426 1651.414849 2295.597251 1654.684155 2318.694752 C 1658.587307 2345.69183 1661.990055 2371.789006 1664.792317 2396.98628 C 1669.295954 2393.786626 1674.099833 2391.486875 1679.404116 2390.686961 C 1705.191606 2386.487416 1730.912375 2414.884343 1736.783783 2454.113431 C 1742.58847 2493.30919 1726.408739 2528.405392 1700.487808 2532.604938 Z M 1700.487808 2532.604938 " transform="matrix(0.117093,0,0,-0.1172,-61.654064,440.192851)"/>
<g clip-path="url(#clip2)" clip-rule="nonzero">
<path style="fill:none;stroke-width:60;stroke-linecap:round;stroke-linejoin:round;stroke:rgb(31.759644%,33.329773%,56.079102%);stroke-opacity:1;stroke-miterlimit:10;" d="M 1985.88493 1840.213196 C 1969.805279 1944.501911 1881.600721 1976.498448 1881.600721 1976.498448 L 1548.598492 2101.684902 L 1420.294888 2062.8891 L 1291.991284 2101.684902 L 958.989055 1976.498448 C 958.989055 1976.498448 870.751137 1944.501911 854.704847 1840.213196 L 822.612266 1483.185164 L 2018.010871 1483.185164 Z M 1985.88493 1840.213196 " transform="matrix(0.117093,0,0,-0.1172,-61.654064,440.192851)"/>
</g>
<path style=" stroke:none;fill-rule:nonzero;fill:rgb(100%,100%,100%);fill-opacity:1;" d="M 89.253906 187.039062 L 104.652344 198.421875 L 92.160156 211.628906 L 76 198.996094 L 89.253906 187.039062 "/>
<path style="fill:none;stroke-width:60;stroke-linecap:round;stroke-linejoin:round;stroke:rgb(31.759644%,33.329773%,56.079102%);stroke-opacity:1;stroke-miterlimit:10;" d="M 1288.788698 2160.011923 L 1420.294888 2062.8891 L 1313.60874 1950.201294 L 1175.597298 2057.98963 Z M 1288.788698 2160.011923 " transform="matrix(0.117093,0,0,-0.1172,-61.654064,440.192851)"/>
<path style=" stroke:none;fill-rule:nonzero;fill:rgb(100%,100%,100%);fill-opacity:1;" d="M 120.050781 187.039062 L 104.652344 198.421875 L 117.160156 211.628906 L 133.304688 198.996094 L 120.050781 187.039062 "/>
<path style="fill:none;stroke-width:60;stroke-linecap:round;stroke-linejoin:round;stroke:rgb(31.759644%,33.329773%,56.079102%);stroke-opacity:1;stroke-miterlimit:10;" d="M 1551.801078 2160.011923 L 1420.294888 2062.8891 L 1527.114477 1950.201294 L 1664.992479 2057.98963 Z M 1551.801078 2160.011923 " transform="matrix(0.117093,0,0,-0.1172,-61.654064,440.192851)"/>
<path style=" stroke:none;fill-rule:nonzero;fill:rgb(30.979919%,71.369934%,85.488892%);fill-opacity:1;" d="M 76.011719 155.066406 L 77.476562 155.066406 L 78.695312 139.234375 L 84.605469 121.527344 C 84.605469 121.527344 86.65625 113.835938 86.023438 110.589844 C 86.023438 110.589844 88.332031 113.414062 94.582031 113.414062 C 94.582031 113.414062 112.300781 114.703125 123.984375 112.324219 C 123.984375 112.324219 128.773438 113.835938 129.195312 117.527344 L 128.257812 129.25 L 131.691406 155.066406 L 133.75 155.066406 L 134.722656 143.945312 C 134.722656 143.945312 136.046875 142.820312 137.460938 143.371094 L 138.574219 114.925781 C 138.574219 114.925781 136.398438 102.339844 130.613281 98.4375 C 130.613281 98.4375 101.1875 84.550781 78.695312 100.828125 C 78.695312 100.828125 70.800781 110.367188 70.179688 119.050781 L 71.84375 143.371094 C 71.84375 143.371094 73.308594 142.914062 75.390625 144.648438 L 76.011719 155.066406 "/>
<path style="fill:none;stroke-width:60;stroke-linecap:round;stroke-linejoin:round;stroke:rgb(31.759644%,33.329773%,56.079102%);stroke-opacity:1;stroke-miterlimit:10;" d="M 1175.697378 2432.815736 L 1188.20748 2432.815736 L 1198.615885 2567.901118 L 1249.089975 2718.984769 C 1249.089975 2718.984769 1266.604118 2784.611001 1261.199754 2812.308004 C 1261.199754 2812.308004 1280.915674 2788.210611 1334.292109 2788.210611 C 1334.292109 2788.210611 1485.6143 2777.211801 1585.394872 2797.509605 C 1585.394872 2797.509605 1626.294564 2784.611001 1629.897474 2753.114409 L 1621.891008 2653.091899 L 1651.214687 2432.815736 L 1668.79555 2432.815736 L 1677.102258 2527.705468 C 1677.102258 2527.705468 1688.41139 2537.304429 1700.487808 2532.604938 L 1709.995485 2775.312007 C 1709.995485 2775.312007 1691.413814 2882.700386 1642.007252 2915.996783 C 1642.007252 2915.996783 1390.704328 3034.483961 1198.615885 2895.598991 C 1198.615885 2895.598991 1131.194776 2814.207798 1125.890493 2740.115816 L 1140.101969 2532.604938 C 1140.101969 2532.604938 1152.612071 2536.504516 1170.393095 2521.706117 Z M 1175.697378 2432.815736 " transform="matrix(0.117093,0,0,-0.1172,-61.654064,440.192851)"/>
<path style=" stroke:none;fill-rule:nonzero;fill:rgb(100%,100%,100%);fill-opacity:1;" d="M 302.726562 143.371094 C 299.707031 142.878906 296.695312 146.207031 296.007812 150.800781 C 295.328125 155.394531 297.222656 159.511719 300.257812 160.003906 C 303.277344 160.496094 306.285156 157.167969 306.964844 152.570312 C 307.65625 147.976562 305.761719 143.863281 302.726562 143.371094 "/>
<path style="fill:none;stroke-width:60;stroke-linecap:round;stroke-linejoin:round;stroke:rgb(31.759644%,33.329773%,56.079102%);stroke-opacity:1;stroke-miterlimit:10;" d="M 3111.89417 2532.604938 C 3086.106681 2536.804483 3060.385911 2508.407556 3054.514504 2469.211797 C 3048.709816 2430.016039 3064.889548 2394.886507 3090.810479 2390.686961 C 3116.597969 2386.487416 3142.285378 2414.884343 3148.090065 2454.113431 C 3153.994833 2493.30919 3137.815101 2528.405392 3111.89417 2532.604938 Z M 3111.89417 2532.604938 " transform="matrix(0.117093,0,0,-0.1172,-61.654064,440.192851)"/>
<path style=" stroke:none;fill-rule:nonzero;fill:rgb(100%,100%,100%);fill-opacity:1;" d="M 237.097656 143.371094 C 234.074219 143.863281 232.179688 147.976562 232.859375 152.570312 C 233.546875 157.167969 236.558594 160.496094 239.578125 160.003906 C 242.613281 159.511719 244.507812 155.394531 243.816406 150.800781 C 243.140625 146.207031 240.128906 142.878906 237.097656 143.371094 "/>
<path style="fill:none;stroke-width:60;stroke-linecap:round;stroke-linejoin:round;stroke:rgb(31.759644%,33.329773%,56.079102%);stroke-opacity:1;stroke-miterlimit:10;" d="M 2551.408251 2532.604938 C 2525.587401 2528.405392 2509.407669 2493.30919 2515.212356 2454.113431 C 2521.083764 2414.884343 2546.804533 2386.487416 2572.592023 2390.686961 C 2598.512954 2394.886507 2614.692685 2430.016039 2608.787917 2469.211797 C 2602.98323 2508.407556 2577.295821 2536.804483 2551.408251 2532.604938 Z M 2551.408251 2532.604938 " transform="matrix(0.117093,0,0,-0.1172,-61.654064,440.192851)"/>
<path style=" stroke:none;fill-rule:nonzero;fill:rgb(100%,100%,100%);fill-opacity:1;" d="M 284.953125 201.480469 L 254.882812 201.480469 L 254.882812 172.34375 L 284.953125 172.34375 L 284.953125 201.480469 "/>
<path style="fill:none;stroke-width:60;stroke-linecap:round;stroke-linejoin:round;stroke:rgb(31.759644%,33.329773%,56.079102%);stroke-opacity:1;stroke-miterlimit:10;" d="M 2960.104936 2036.791924 L 2703.297566 2036.791924 L 2703.297566 2285.398355 L 2960.104936 2285.398355 Z M 2960.104936 2036.791924 " transform="matrix(0.117093,0,0,-0.1172,-61.654064,440.192851)"/>
<path style=" stroke:none;fill-rule:nonzero;fill:rgb(100%,100%,100%);fill-opacity:1;" d="M 300.738281 122.21875 C 294.097656 100.511719 274.566406 98.589844 269.917969 98.4375 C 265.269531 98.589844 245.738281 100.511719 239.097656 122.21875 C 239.097656 122.21875 238.664062 141.894531 242.472656 168.441406 C 242.859375 171.148438 244.859375 173.503906 246.898438 175.238281 C 253.171875 180.628906 261.816406 187.027344 269.917969 187.613281 C 278.019531 187.027344 286.648438 180.628906 292.9375 175.238281 C 294.964844 173.503906 296.964844 171.148438 297.363281 168.441406 C 301.167969 141.894531 300.738281 122.21875 300.738281 122.21875 "/>
<path style="fill:none;stroke-width:60;stroke-linecap:round;stroke-linejoin:round;stroke:rgb(31.759644%,33.329773%,56.079102%);stroke-opacity:1;stroke-miterlimit:10;" d="M 3094.913792 2713.085407 C 3038.201331 2898.298698 2871.399974 2914.696924 2831.701251 2915.996783 C 2792.002528 2914.696924 2625.201171 2898.298698 2568.48871 2713.085407 C 2568.48871 2713.085407 2564.785719 2545.203574 2597.311984 2318.694752 C 2600.614651 2295.597251 2617.69511 2275.499426 2635.109172 2260.701027 C 2688.685767 2214.706005 2762.512048 2160.111912 2831.701251 2155.112453 C 2900.890454 2160.111912 2974.616654 2214.706005 3028.29333 2260.701027 C 3045.607311 2275.499426 3062.68777 2295.597251 3066.090518 2318.694752 C 3098.616782 2545.203574 3094.913792 2713.085407 3094.913792 2713.085407 Z M 3094.913792 2713.085407 " transform="matrix(0.117093,0,0,-0.1172,-61.654064,440.192851)"/>
<path style=" stroke:none;fill-rule:nonzero;fill:rgb(30.979919%,71.369934%,85.488892%);fill-opacity:1;" d="M 299.097656 152.5 C 298.957031 152.546875 298.828125 152.570312 298.699219 152.582031 C 298.171875 155.898438 297.914062 155.464844 295.878906 158.082031 C 294.144531 160.308594 291.988281 161.539062 289.203125 161.9375 C 285.667969 162.464844 283.6875 159.933594 280.445312 159.324219 C 277.328125 158.714844 274.753906 159.921875 271.734375 159.816406 C 269.367188 159.734375 267.097656 159.335938 264.753906 159.113281 C 260.492188 158.714844 256.816406 161.152344 252.683594 160.671875 C 246.757812 159.980469 245.585938 156.160156 240.773438 154.585938 C 241.21875 158.925781 241.769531 163.554688 242.472656 168.441406 C 242.859375 171.148438 244.859375 173.503906 246.898438 175.238281 C 253.171875 180.628906 261.816406 187.027344 269.917969 187.613281 C 278.019531 187.027344 286.648438 180.628906 292.9375 175.238281 C 294.964844 173.503906 296.964844 171.148438 297.363281 168.441406 C 298.183594 162.746094 298.804688 157.378906 299.273438 152.441406 C 299.214844 152.464844 299.15625 152.476562 299.097656 152.5 "/>
<path style="fill:none;stroke-width:60;stroke-linecap:round;stroke-linejoin:round;stroke:rgb(31.759644%,33.329773%,56.079102%);stroke-opacity:1;stroke-miterlimit:10;" d="M 3080.902478 2454.713366 C 3079.701509 2454.31341 3078.60062 2454.113431 3077.499731 2454.013442 C 3072.996094 2425.716504 3070.794316 2429.416104 3053.413615 2407.085187 C 3038.601654 2388.087243 3020.186784 2377.588379 2996.400911 2374.188747 C 2966.209865 2369.689234 2949.296208 2391.286897 2921.607182 2396.486334 C 2894.985686 2401.685771 2873.001267 2391.386886 2847.213777 2392.286788 C 2826.997453 2392.986713 2807.615135 2396.386345 2787.598972 2398.286139 C 2751.202916 2401.685771 2719.810901 2380.888022 2684.515734 2384.987578 C 2633.908202 2390.88694 2623.90012 2423.516742 2582.800266 2436.915292 C 2586.603337 2399.885966 2591.307135 2360.39024 2597.311984 2318.694752 C 2600.614651 2295.597251 2617.69511 2275.499426 2635.109172 2260.701027 C 2688.685767 2214.706005 2762.512048 2160.111912 2831.701251 2155.112453 C 2900.890454 2160.111912 2974.583293 2214.706005 3028.29333 2260.701027 C 3045.607311 2275.499426 3062.68777 2295.597251 3066.090518 2318.694752 C 3073.096175 2367.289493 3078.400458 2413.084538 3082.403691 2455.213312 C 3081.903287 2455.013334 3081.402882 2454.913345 3080.902478 2454.713366 Z M 3080.902478 2454.713366 " transform="matrix(0.117093,0,0,-0.1172,-61.654064,440.192851)"/>
<path style=" stroke:none;fill-rule:nonzero;fill:rgb(100%,100%,100%);fill-opacity:1;" d="M 336.144531 224.519531 C 334.261719 212.296875 323.933594 208.546875 323.933594 208.546875 L 284.941406 193.875 L 254.882812 193.875 L 215.902344 208.546875 C 215.902344 208.546875 205.5625 212.296875 203.691406 224.519531 L 199.929688 266.363281 L 339.902344 266.363281 L 336.144531 224.519531 "/>
<g clip-path="url(#clip3)" clip-rule="nonzero">
<path style="fill:none;stroke-width:60;stroke-linecap:round;stroke-linejoin:round;stroke:rgb(31.759644%,33.329773%,56.079102%);stroke-opacity:1;stroke-miterlimit:10;" d="M 3397.291292 1840.213196 C 3381.211642 1944.501911 3293.007084 1976.498448 3293.007084 1976.498448 L 2960.004855 2101.684902 L 2703.297566 2101.684902 L 2370.395418 1976.498448 C 2370.395418 1976.498448 2282.09078 1944.501911 2266.11121 1840.213196 L 2233.985268 1483.185164 L 3429.383873 1483.185164 Z M 3397.291292 1840.213196 " transform="matrix(0.117093,0,0,-0.1172,-61.654064,440.192851)"/>
</g>
<path style=" stroke:none;fill-rule:nonzero;fill:rgb(100%,100%,100%);fill-opacity:1;" d="M 336.144531 224.519531 C 334.261719 212.296875 323.933594 208.546875 323.933594 208.546875 L 284.941406 193.875 L 269.90625 198.421875 L 254.882812 193.875 L 215.902344 208.546875 C 215.902344 208.546875 205.5625 212.296875 203.691406 224.519531 L 199.929688 266.363281 L 339.902344 266.363281 L 336.144531 224.519531 "/>
<g clip-path="url(#clip4)" clip-rule="nonzero">
<path style="fill:none;stroke-width:60;stroke-linecap:round;stroke-linejoin:round;stroke:rgb(31.759644%,33.329773%,56.079102%);stroke-opacity:1;stroke-miterlimit:10;" d="M 3397.291292 1840.213196 C 3381.211642 1944.501911 3293.007084 1976.498448 3293.007084 1976.498448 L 2960.004855 2101.684902 L 2831.60117 2062.8891 L 2703.297566 2101.684902 L 2370.395418 1976.498448 C 2370.395418 1976.498448 2282.09078 1944.501911 2266.11121 1840.213196 L 2233.985268 1483.185164 L 3429.383873 1483.185164 Z M 3397.291292 1840.213196 " transform="matrix(0.117093,0,0,-0.1172,-61.654064,440.192851)"/>
</g>
<path style=" stroke:none;fill-rule:nonzero;fill:rgb(100%,100%,100%);fill-opacity:1;" d="M 254.519531 187.039062 L 269.917969 198.421875 L 257.414062 211.628906 L 241.265625 198.996094 L 254.519531 187.039062 "/>
<path style="fill:none;stroke-width:60;stroke-linecap:round;stroke-linejoin:round;stroke:rgb(31.759644%,33.329773%,56.079102%);stroke-opacity:1;stroke-miterlimit:10;" d="M 2700.195061 2160.011923 L 2831.701251 2062.8891 L 2724.915022 1950.201294 L 2587.00366 2057.98963 Z M 2700.195061 2160.011923 " transform="matrix(0.117093,0,0,-0.1172,-61.654064,440.192851)"/>
<path style=" stroke:none;fill-rule:nonzero;fill:rgb(100%,100%,100%);fill-opacity:1;" d="M 285.316406 187.039062 L 269.917969 198.421875 L 282.421875 211.628906 L 298.570312 198.996094 L 285.316406 187.039062 "/>
<path style="fill:none;stroke-width:60;stroke-linecap:round;stroke-linejoin:round;stroke:rgb(31.759644%,33.329773%,56.079102%);stroke-opacity:1;stroke-miterlimit:10;" d="M 2963.207441 2160.011923 L 2831.701251 2062.8891 L 2938.48748 1950.201294 L 3076.398842 2057.98963 Z M 2963.207441 2160.011923 " transform="matrix(0.117093,0,0,-0.1172,-61.654064,440.192851)"/>
<path style=" stroke:none;fill-rule:nonzero;fill:rgb(30.979919%,71.369934%,85.488892%);fill-opacity:1;" d="M 303.839844 117.117188 L 302.726562 145.5625 C 301.308594 145.011719 299.988281 146.136719 299.988281 146.136719 L 299.015625 157.261719 L 295.878906 158.949219 L 295.878906 139.9375 L 294.472656 117.867188 C 293.746094 111.316406 284.953125 111.820312 284.953125 111.820312 C 276.359375 115.3125 253.382812 112.253906 253.382812 112.253906 C 248.582031 113.707031 247.402344 124.117188 247.402344 124.117188 L 243.957031 141.425781 L 243.957031 157.320312 L 240.773438 154.585938 L 240.65625 146.839844 C 238.570312 145.117188 237.097656 145.5625 237.097656 145.5625 L 235.445312 121.246094 C 236.066406 112.558594 243.957031 103.019531 243.957031 103.019531 C 243.957031 103.019531 256.875 91.417969 284.238281 96.527344 C 284.238281 96.527344 293.40625 97.6875 294.71875 94.195312 C 294.71875 94.195312 297.632812 97.839844 296.613281 101.179688 C 296.613281 101.179688 300.691406 101.660156 303.019531 98.4375 C 303.019531 98.4375 308.441406 110.472656 303.839844 117.117188 "/>
<path style="fill:none;stroke-width:60;stroke-linecap:round;stroke-linejoin:round;stroke:rgb(31.759644%,33.329773%,56.079102%);stroke-opacity:1;stroke-miterlimit:10;" d="M 3121.401848 2756.61403 L 3111.89417 2513.906961 C 3099.784392 2518.606452 3088.50862 2509.007491 3088.50862 2509.007491 L 3080.201913 2414.08443 L 3053.413615 2399.685988 L 3053.413615 2561.901767 L 3041.403917 2750.214723 C 3035.198907 2806.108674 2960.104936 2801.80914 2960.104936 2801.80914 C 2886.712339 2772.012364 2690.487222 2798.10954 2690.487222 2798.10954 C 2649.487449 2785.710882 2639.412647 2696.88716 2639.412647 2696.88716 L 2609.988887 2549.203141 L 2609.988887 2413.584484 L 2582.800266 2436.915292 L 2581.799458 2503.00814 C 2563.985073 2517.70655 2551.408251 2513.906961 2551.408251 2513.906961 L 2537.296856 2721.384509 C 2542.601139 2795.509821 2609.988887 2876.901014 2609.988887 2876.901014 C 2609.988887 2876.901014 2720.311305 2975.890302 2954.000006 2932.29502 C 2954.000006 2932.29502 3032.296563 2922.396091 3043.505614 2952.192866 C 3043.505614 2952.192866 3068.392377 2921.096231 3059.685346 2892.599315 C 3059.685346 2892.599315 3094.513469 2888.499759 3114.396191 2915.996783 C 3114.396191 2915.996783 3160.700248 2813.307895 3121.401848 2756.61403 Z M 3121.401848 2756.61403 " transform="matrix(0.117093,0,0,-0.1172,-61.654064,440.192851)"/>
<path style=" stroke:none;fill-rule:nonzero;fill:rgb(30.979919%,71.369934%,85.488892%);fill-opacity:1;" d="M 152.378906 235.1875 L 232.566406 235.1875 L 232.566406 140.945312 C 232.566406 114.316406 214.882812 100.125 214.882812 100.125 C 214.882812 100.125 164.3125 84.5625 152.378906 128.148438 L 152.378906 235.1875 "/>
<g clip-path="url(#clip5)" clip-rule="nonzero">
<path style="fill:none;stroke-width:60;stroke-linecap:butt;stroke-linejoin:miter;stroke:rgb(31.759644%,33.329773%,56.079102%);stroke-opacity:1;stroke-miterlimit:10;" d="M 1827.890684 1749.189713 L 2512.710336 1749.189713 L 2512.710336 2553.302698 C 2512.710336 2780.511444 2361.688387 2901.598341 2361.688387 2901.598341 C 2361.688387 2901.598341 1929.806313 3034.383972 1827.890684 2662.490882 Z M 1827.890684 1749.189713 " transform="matrix(0.117093,0,0,-0.1172,-61.654064,440.192851)"/>
</g>
<path style=" stroke:none;fill-rule:nonzero;fill:rgb(100%,100%,100%);fill-opacity:1;" d="M 264.589844 243.425781 C 262.402344 229.152344 250.339844 224.765625 250.339844 224.765625 L 204.835938 207.644531 L 204.835938 182.503906 L 169.746094 182.503906 L 169.746094 207.632812 L 124.230469 224.765625 C 124.230469 224.765625 112.171875 229.152344 109.96875 243.425781 L 105.589844 292.261719 L 268.980469 292.261719 L 264.589844 243.425781 "/>
<g clip-path="url(#clip6)" clip-rule="nonzero">
<path style="fill:none;stroke-width:60;stroke-linecap:butt;stroke-linejoin:miter;stroke:rgb(31.759644%,33.329773%,56.079102%);stroke-opacity:1;stroke-miterlimit:10;" d="M 2786.197841 1678.897319 C 2767.516089 1800.68414 2664.499571 1838.113423 2664.499571 1838.113423 L 2275.885769 1984.197615 L 2275.885769 2198.707736 L 1976.210451 2198.707736 L 1976.210451 1984.297604 L 1587.496569 1838.113423 C 1587.496569 1838.113423 1484.513411 1800.68414 1465.698218 1678.897319 L 1428.301353 1262.209076 L 2823.694786 1262.209076 Z M 2786.197841 1678.897319 " transform="matrix(0.117093,0,0,-0.1172,-61.654064,440.192851)"/>
</g>
<path style=" stroke:none;fill-rule:nonzero;fill:rgb(30.979919%,71.369934%,85.488892%);fill-opacity:1;" d="M 215.316406 211.582031 L 250.339844 224.765625 C 250.339844 224.765625 262.402344 229.152344 264.589844 243.425781 L 268.980469 292.261719 L 105.589844 292.261719 L 109.96875 243.425781 C 112.171875 229.152344 124.230469 224.765625 124.230469 224.765625 L 159.875 211.347656 C 159.875 211.347656 159.324219 236.839844 187.285156 239.03125 C 187.285156 239.03125 217.144531 241.621094 215.316406 211.582031 "/>
<g clip-path="url(#clip7)" clip-rule="nonzero">
<path style="fill:none;stroke-width:60;stroke-linecap:butt;stroke-linejoin:miter;stroke:rgb(31.759644%,33.329773%,56.079102%);stroke-opacity:1;stroke-miterlimit:10;" d="M 2365.391377 1950.601251 L 2664.499571 1838.113423 C 2664.499571 1838.113423 2767.516089 1800.68414 2786.197841 1678.897319 L 2823.694786 1262.209076 L 1428.301353 1262.209076 L 1465.698218 1678.897319 C 1484.513411 1800.68414 1587.496569 1838.113423 1587.496569 1838.113423 L 1891.909045 1952.601034 C 1891.909045 1952.601034 1887.205247 1735.091238 2125.99807 1716.393262 C 2125.99807 1716.393262 2381.003984 1694.295653 2365.391377 1950.601251 Z M 2365.391377 1950.601251 " transform="matrix(0.117093,0,0,-0.1172,-61.654064,440.192851)"/>
</g>
<path style=" stroke:none;fill-rule:nonzero;fill:rgb(100%,100%,100%);fill-opacity:1;" d="M 225.257812 151.480469 C 224.941406 151.433594 224.613281 151.433594 224.296875 151.457031 C 227.214844 130.820312 223.351562 122.863281 223.351562 122.863281 C 215.035156 93.632812 188.890625 93.796875 187.308594 93.832031 C 187.285156 93.832031 187.238281 93.832031 187.214844 93.820312 C 187.191406 93.832031 187.132812 93.832031 187.121094 93.832031 C 185.539062 93.796875 159.394531 93.632812 151.082031 122.863281 C 151.082031 122.863281 147.214844 130.820312 150.121094 151.457031 C 149.804688 151.433594 149.488281 151.433594 149.171875 151.480469 C 145.730469 152.042969 143.574219 156.816406 144.359375 162.125 C 145.132812 167.445312 148.539062 171.289062 151.96875 170.726562 C 152.660156 170.609375 153.292969 170.316406 153.867188 169.894531 C 153.9375 170.140625 153.984375 170.375 154.054688 170.621094 C 154.054688 170.621094 164.3125 197.882812 187.121094 200.601562 C 187.144531 200.601562 187.191406 200.589844 187.214844 200.589844 C 187.238281 200.589844 187.273438 200.601562 187.308594 200.601562 C 210.105469 197.882812 220.375 170.621094 220.375 170.621094 C 220.433594 170.375 220.492188 170.140625 220.5625 169.894531 C 221.125 170.316406 221.769531 170.609375 222.460938 170.726562 C 225.890625 171.289062 229.296875 167.445312 230.070312 162.125 C 230.84375 156.816406 228.6875 152.042969 225.257812 151.480469 "/>
<g clip-path="url(#clip8)" clip-rule="nonzero">
<path style="fill:none;stroke-width:60;stroke-linecap:butt;stroke-linejoin:miter;stroke:rgb(31.759644%,33.329773%,56.079102%);stroke-opacity:1;stroke-miterlimit:10;" d="M 2450.293268 2463.412425 C 2447.591086 2463.812382 2444.788823 2463.812382 2442.086641 2463.612403 C 2467.006764 2639.693349 2434.013456 2707.586002 2434.013456 2707.586002 C 2362.989438 2956.992347 2139.709141 2955.592499 2126.198231 2955.292531 C 2125.99807 2955.292531 2125.597746 2955.292531 2125.397585 2955.39252 C 2125.197423 2955.292531 2124.697019 2955.292531 2124.596938 2955.292531 C 2111.086028 2955.592499 1887.805732 2956.992347 1816.815074 2707.586002 C 1816.815074 2707.586002 1783.788406 2639.693349 1808.608447 2463.612403 C 1805.906265 2463.812382 1803.204084 2463.812382 1800.501902 2463.412425 C 1771.111502 2458.612944 1752.696633 2417.884018 1759.402047 2372.58892 C 1766.007381 2327.193832 1795.097538 2294.397381 1824.387856 2299.196862 C 1830.292624 2300.196754 1835.696988 2302.696483 1840.600948 2306.296094 C 1841.201433 2304.196321 1841.601756 2302.196537 1842.202241 2300.096764 C 1842.202241 2300.096764 1929.806313 2067.488602 2124.596938 2044.291112 C 2124.7971 2044.291112 2125.197423 2044.391102 2125.397585 2044.391102 C 2125.597746 2044.391102 2125.897989 2044.291112 2126.198231 2044.291112 C 2320.888775 2067.488602 2408.592929 2300.096764 2408.592929 2300.096764 C 2409.093333 2302.196537 2409.593737 2304.196321 2410.194222 2306.296094 C 2414.998101 2302.696483 2420.502546 2300.196754 2426.407314 2299.196862 C 2455.697632 2294.397381 2484.787789 2327.193832 2491.393122 2372.58892 C 2497.998456 2417.884018 2479.583586 2458.612944 2450.293268 2463.412425 Z M 2450.293268 2463.412425 " transform="matrix(0.117093,0,0,-0.1172,-61.654064,440.192851)"/>
</g>
<path style=" stroke:none;fill-rule:nonzero;fill:rgb(30.979919%,71.369934%,85.488892%);fill-opacity:1;" d="M 170.796875 114.632812 C 170.796875 114.632812 156.945312 120.730469 156.945312 151.433594 L 156.945312 212.882812 L 140.460938 218.859375 L 140.460938 154.609375 C 140.460938 154.609375 137.941406 112.628906 160.824219 97.640625 L 170.796875 114.632812 "/>
<g clip-path="url(#clip9)" clip-rule="nonzero">
<path style="fill:none;stroke-width:60;stroke-linecap:butt;stroke-linejoin:miter;stroke:rgb(31.759644%,33.329773%,56.079102%);stroke-opacity:1;stroke-miterlimit:10;" d="M 1985.184364 2777.811737 C 1985.184364 2777.811737 1866.888842 2725.784033 1866.888842 2463.812382 L 1866.888842 1939.502452 L 1726.108496 1888.50797 L 1726.108496 2436.715314 C 1726.108496 2436.715314 1704.591121 2794.909886 1900.015591 2922.796047 Z M 1985.184364 2777.811737 " transform="matrix(0.117093,0,0,-0.1172,-61.654064,440.192851)"/>
</g>
<path style=" stroke:none;fill-rule:nonzero;fill:rgb(30.979919%,71.369934%,85.488892%);fill-opacity:1;" d="M 160.824219 97.640625 C 160.824219 97.640625 186.640625 79.085938 214.882812 99.035156 C 214.882812 99.035156 226.640625 107.261719 229.554688 122.429688 C 229.554688 122.429688 234.355469 141.824219 225.257812 151.480469 C 225.257812 151.480469 189.195312 143.570312 170.796875 114.632812 L 160.824219 97.640625 "/>
<g clip-path="url(#clip10)" clip-rule="nonzero">
<path style="fill:none;stroke-width:60;stroke-linecap:butt;stroke-linejoin:miter;stroke:rgb(31.759644%,33.329773%,56.079102%);stroke-opacity:1;stroke-miterlimit:10;" d="M 1900.015591 2922.796047 C 1900.015591 2922.796047 2120.493625 3081.112249 2361.688387 2910.897335 C 2361.688387 2910.897335 2462.102804 2840.704931 2486.989567 2711.285602 C 2486.989567 2711.285602 2527.98934 2545.803509 2450.293268 2463.412425 C 2450.293268 2463.412425 2142.311242 2530.905121 1985.184364 2777.811737 Z M 1900.015591 2922.796047 " transform="matrix(0.117093,0,0,-0.1172,-61.654064,440.192851)"/>
</g>
</g>
</svg>
